<svg width="348" height="57" viewBox="0 0 348 57" fill="none" xmlns="http://www.w3.org/2000/svg">
<path d="M0 15.8739C0 8.25327 6.09317 2.03416 13.7124 1.8915C44.6212 1.31274 121.188 -0.0106796 174.526 6.50351e-05C227.392 0.0107148 303.486 1.32013 334.285 1.89328C341.905 2.03508 348 8.25464 348 15.8761V40.2024C348 47.8238 341.905 54.0434 334.285 54.1852C303.486 54.7584 227.392 56.0678 174.526 56.0785C121.188 56.0892 44.6211 54.7658 13.7124 54.187C6.09314 54.0443 0 47.8252 0 40.2046V15.8739Z" fill="#6524EB"/>
<path d="M313.369 34.5156C313.036 34.5156 312.717 34.436 312.413 34.2793C312.033 34.0595 311.73 33.7124 311.562 33.3037C311.456 33.0207 311.289 32.1717 311.289 32.1562C311.136 31.2998 311.046 29.9482 311.033 28.4336L311.031 28.0518C311.031 26.465 311.122 25.0183 311.259 24.0752L311.378 23.4883C311.444 23.1778 311.532 22.8242 311.623 22.6436C311.957 21.9831 312.61 21.5742 313.309 21.5742H313.369C313.823 21.5896 314.774 21.9964 314.781 22.0137C316.32 22.6761 319.29 24.6753 320.661 26.1006L321.06 26.5293C321.164 26.6452 321.282 26.7827 321.354 26.8896C321.597 27.2198 321.719 27.6287 321.719 28.0371C321.719 28.4931 321.582 28.9169 321.324 29.2637L320.915 29.7168L320.823 29.8135C319.579 31.1973 316.33 33.4607 314.63 34.1533L314.373 34.2539C314.064 34.3674 313.631 34.5032 313.369 34.5156ZM304.375 29.6816C303.502 29.6816 302.794 28.9488 302.794 28.0449C302.794 27.1409 303.502 26.4072 304.375 26.4072L308.264 26.7607C308.948 26.7607 309.504 27.3357 309.504 28.0449C309.504 28.7551 308.948 29.3291 308.264 29.3291L304.375 29.6816Z" fill="white"/>
</svg>
