<svg width="111" height="46" viewBox="0 0 111 46" fill="none" xmlns="http://www.w3.org/2000/svg">
<path d="M0 12C0 9.79086 1.79086 8 4 8H74V38H4C1.79086 38 0 36.2091 0 34V12Z" fill="white"/>
<path d="M49.997 12.095L45.909 22H45.272L41.184 12.095H41.751C41.8163 12.095 41.87 12.1137 41.912 12.151C41.954 12.1837 41.9866 12.228 42.01 12.284L45.384 20.502C45.4213 20.6047 45.4586 20.7143 45.496 20.831C45.5333 20.9477 45.5683 21.0667 45.601 21.188C45.629 21.0667 45.6593 20.9477 45.692 20.831C45.7246 20.7143 45.762 20.6047 45.804 20.502L49.171 12.284C49.1896 12.2327 49.2223 12.1883 49.269 12.151C49.3156 12.1137 49.3716 12.095 49.437 12.095H49.997ZM52.3598 22H51.6388V12.095H52.3598V22ZM60.6302 18.402L58.6142 13.397C58.5442 13.2337 58.4765 13.0377 58.4112 12.809C58.3832 12.921 58.3528 13.0283 58.3202 13.131C58.2875 13.229 58.2525 13.32 58.2152 13.404L56.1992 18.402H60.6302ZM62.8212 22H62.2682C62.2028 22 62.1492 21.9837 62.1072 21.951C62.0652 21.9137 62.0325 21.867 62.0092 21.811L60.8472 18.934H55.9822L54.8202 21.811C54.8015 21.8623 54.7688 21.9067 54.7222 21.944C54.6755 21.9813 54.6195 22 54.5542 22H54.0082L58.0612 12.095H58.7682L62.8212 22ZM15.5914 31.272C15.7087 31.272 15.8127 31.3173 15.9034 31.408L16.7514 32.328C16.282 32.9093 15.7034 33.3547 15.0154 33.664C14.3327 33.9733 13.5114 34.128 12.5514 34.128C11.6927 34.128 10.9194 33.9813 10.2314 33.688C9.54871 33.3947 8.96471 32.9867 8.47938 32.464C7.99404 31.9413 7.62071 31.3173 7.35938 30.592C7.10338 29.8667 6.97538 29.0747 6.97538 28.216C6.97538 27.3467 7.11404 26.552 7.39138 25.832C7.66871 25.1067 8.05804 24.4827 8.55938 23.96C9.06604 23.4373 9.66871 23.032 10.3674 22.744C11.066 22.4507 11.8394 22.304 12.6874 22.304C13.53 22.304 14.2767 22.4427 14.9274 22.72C15.5834 22.9973 16.1407 23.36 16.5994 23.808L15.8794 24.808C15.8367 24.872 15.7807 24.928 15.7114 24.976C15.6474 25.024 15.5567 25.048 15.4394 25.048C15.3594 25.048 15.2767 25.0267 15.1914 24.984C15.106 24.936 15.0127 24.88 14.9114 24.816C14.81 24.7467 14.6927 24.672 14.5594 24.592C14.426 24.512 14.2714 24.44 14.0954 24.376C13.9194 24.3067 13.714 24.2507 13.4794 24.208C13.25 24.16 12.9834 24.136 12.6794 24.136C12.162 24.136 11.6874 24.2293 11.2554 24.416C10.8287 24.5973 10.4607 24.864 10.1514 25.216C9.84204 25.5627 9.60204 25.9893 9.43138 26.496C9.26071 26.9973 9.17538 27.5707 9.17538 28.216C9.17538 28.8667 9.26604 29.4453 9.44738 29.952C9.63404 30.4587 9.88471 30.8853 10.1994 31.232C10.514 31.5787 10.8847 31.8453 11.3114 32.032C11.738 32.2133 12.1967 32.304 12.6874 32.304C12.9807 32.304 13.2447 32.288 13.4794 32.256C13.7194 32.224 13.938 32.1733 14.1354 32.104C14.338 32.0347 14.5274 31.9467 14.7034 31.84C14.8847 31.728 15.0634 31.592 15.2394 31.432C15.2927 31.384 15.3487 31.3467 15.4074 31.32C15.466 31.288 15.5274 31.272 15.5914 31.272ZM22.2495 30.496C21.6788 30.5227 21.1988 30.5733 20.8095 30.648C20.4202 30.7173 20.1082 30.808 19.8735 30.92C19.6388 31.032 19.4708 31.1627 19.3695 31.312C19.2682 31.4613 19.2175 31.624 19.2175 31.8C19.2175 32.1467 19.3188 32.3947 19.5215 32.544C19.7295 32.6933 19.9988 32.768 20.3295 32.768C20.7348 32.768 21.0842 32.696 21.3775 32.552C21.6762 32.4027 21.9668 32.1787 22.2495 31.88V30.496ZM17.7215 26.936C18.6655 26.072 19.8015 25.64 21.1295 25.64C21.6095 25.64 22.0388 25.72 22.4175 25.88C22.7962 26.0347 23.1162 26.2533 23.3775 26.536C23.6388 26.8133 23.8362 27.1467 23.9695 27.536C24.1082 27.9253 24.1775 28.352 24.1775 28.816V34H23.2815C23.0948 34 22.9508 33.9733 22.8495 33.92C22.7482 33.8613 22.6682 33.7467 22.6095 33.576L22.4335 32.984C22.2255 33.1707 22.0228 33.336 21.8255 33.48C21.6282 33.6187 21.4228 33.736 21.2095 33.832C20.9962 33.928 20.7668 34 20.5215 34.048C20.2815 34.1013 20.0148 34.128 19.7215 34.128C19.3748 34.128 19.0548 34.0827 18.7615 33.992C18.4682 33.896 18.2148 33.7547 18.0015 33.568C17.7882 33.3813 17.6228 33.1493 17.5055 32.872C17.3882 32.5947 17.3295 32.272 17.3295 31.904C17.3295 31.696 17.3642 31.4907 17.4335 31.288C17.5028 31.08 17.6148 30.8827 17.7695 30.696C17.9295 30.5093 18.1348 30.3333 18.3855 30.168C18.6362 30.0027 18.9428 29.8587 19.3055 29.736C19.6735 29.6133 20.1002 29.5147 20.5855 29.44C21.0708 29.36 21.6255 29.312 22.2495 29.296V28.816C22.2495 28.2667 22.1322 27.8613 21.8975 27.6C21.6628 27.3333 21.3242 27.2 20.8815 27.2C20.5615 27.2 20.2948 27.2373 20.0815 27.312C19.8735 27.3867 19.6895 27.472 19.5295 27.568C19.3695 27.6587 19.2228 27.7413 19.0895 27.816C18.9615 27.8907 18.8175 27.928 18.6575 27.928C18.5188 27.928 18.4015 27.8933 18.3055 27.824C18.2095 27.7493 18.1322 27.664 18.0735 27.568L17.7215 26.936ZM28.0385 22.112V34H26.0625V22.112H28.0385ZM29.7193 32.912C29.7193 32.7467 29.7486 32.5893 29.8073 32.44C29.8713 32.2907 29.9566 32.1627 30.0633 32.056C30.1699 31.9493 30.2979 31.864 30.4473 31.8C30.5966 31.736 30.7566 31.704 30.9273 31.704C31.0979 31.704 31.2553 31.736 31.3993 31.8C31.5486 31.864 31.6766 31.9493 31.7833 32.056C31.8953 32.1627 31.9833 32.2907 32.0473 32.44C32.1113 32.5893 32.1433 32.7467 32.1433 32.912C32.1433 33.0827 32.1113 33.2427 32.0473 33.392C31.9833 33.536 31.8953 33.6613 31.7833 33.768C31.6766 33.8747 31.5486 33.9573 31.3993 34.016C31.2553 34.08 31.0979 34.112 30.9273 34.112C30.7566 34.112 30.5966 34.08 30.4473 34.016C30.2979 33.9573 30.1699 33.8747 30.0633 33.768C29.9566 33.6613 29.8713 33.536 29.8073 33.392C29.7486 33.2427 29.7193 33.0827 29.7193 32.912ZM39.6841 27.528C39.6255 27.6027 39.5668 27.6613 39.5081 27.704C39.4548 27.7467 39.3748 27.768 39.2681 27.768C39.1668 27.768 39.0681 27.7387 38.9721 27.68C38.8761 27.616 38.7615 27.5467 38.6281 27.472C38.4948 27.392 38.3348 27.3227 38.1481 27.264C37.9668 27.2 37.7401 27.168 37.4681 27.168C37.1215 27.168 36.8175 27.232 36.5561 27.36C36.2948 27.4827 36.0761 27.6613 35.9001 27.896C35.7295 28.1307 35.6015 28.416 35.5161 28.752C35.4308 29.0827 35.3881 29.4587 35.3881 29.88C35.3881 30.3173 35.4335 30.7067 35.5241 31.048C35.6201 31.3893 35.7561 31.6773 35.9321 31.912C36.1081 32.1413 36.3215 32.3173 36.5721 32.44C36.8228 32.5573 37.1055 32.616 37.4201 32.616C37.7348 32.616 37.9881 32.5787 38.1801 32.504C38.3775 32.424 38.5428 32.3387 38.6761 32.248C38.8095 32.152 38.9241 32.0667 39.0201 31.992C39.1215 31.912 39.2335 31.872 39.3561 31.872C39.5161 31.872 39.6361 31.9333 39.7161 32.056L40.2841 32.776C40.0655 33.032 39.8281 33.248 39.5721 33.424C39.3161 33.5947 39.0495 33.7333 38.7721 33.84C38.5001 33.9413 38.2175 34.0133 37.9241 34.056C37.6361 34.0987 37.3481 34.12 37.0601 34.12C36.5535 34.12 36.0761 34.0267 35.6281 33.84C35.1801 33.648 34.7881 33.3707 34.4521 33.008C34.1161 32.6453 33.8495 32.2027 33.6521 31.68C33.4601 31.152 33.3641 30.552 33.3641 29.88C33.3641 29.2773 33.4495 28.72 33.6201 28.208C33.7961 27.6907 34.0521 27.2453 34.3881 26.872C34.7241 26.4933 35.1401 26.1973 35.6361 25.984C36.1321 25.7707 36.7028 25.664 37.3481 25.664C37.9615 25.664 38.4975 25.7627 38.9561 25.96C39.4201 26.1573 39.8361 26.44 40.2041 26.808L39.6841 27.528ZM45.0143 25.664C45.6223 25.664 46.1743 25.7627 46.6703 25.96C47.1716 26.1573 47.5983 26.4373 47.9503 26.8C48.3076 27.1627 48.5822 27.6053 48.7743 28.128C48.9663 28.6507 49.0623 29.2347 49.0623 29.88C49.0623 30.5307 48.9663 31.1173 48.7743 31.64C48.5822 32.1627 48.3076 32.608 47.9503 32.976C47.5983 33.344 47.1716 33.6267 46.6703 33.824C46.1743 34.0213 45.6223 34.12 45.0143 34.12C44.4009 34.12 43.8436 34.0213 43.3423 33.824C42.8409 33.6267 42.4116 33.344 42.0543 32.976C41.7023 32.608 41.4276 32.1627 41.2303 31.64C41.0383 31.1173 40.9423 30.5307 40.9423 29.88C40.9423 29.2347 41.0383 28.6507 41.2303 28.128C41.4276 27.6053 41.7023 27.1627 42.0543 26.8C42.4116 26.4373 42.8409 26.1573 43.3423 25.96C43.8436 25.7627 44.4009 25.664 45.0143 25.664ZM45.0143 32.6C45.6969 32.6 46.2009 32.3707 46.5263 31.912C46.8569 31.4533 47.0223 30.7813 47.0223 29.896C47.0223 29.0107 46.8569 28.336 46.5263 27.872C46.2009 27.408 45.6969 27.176 45.0143 27.176C44.3209 27.176 43.8063 27.4107 43.4703 27.88C43.1396 28.344 42.9743 29.016 42.9743 29.896C42.9743 30.776 43.1396 31.448 43.4703 31.912C43.8063 32.3707 44.3209 32.6 45.0143 32.6ZM50.5698 34V25.792H51.7778C52.0338 25.792 52.2018 25.912 52.2818 26.152L52.4098 26.76C52.5538 26.6 52.7031 26.4533 52.8578 26.32C53.0178 26.1867 53.1858 26.072 53.3618 25.976C53.5431 25.88 53.7351 25.8053 53.9378 25.752C54.1458 25.6933 54.3724 25.664 54.6178 25.664C55.1351 25.664 55.5591 25.8053 55.8898 26.088C56.2258 26.3653 56.4764 26.736 56.6418 27.2C56.7698 26.928 56.9298 26.696 57.1218 26.504C57.3138 26.3067 57.5244 26.1467 57.7538 26.024C57.9831 25.9013 58.2258 25.8107 58.4818 25.752C58.7431 25.6933 59.0044 25.664 59.2658 25.664C59.7191 25.664 60.1218 25.7333 60.4738 25.872C60.8258 26.0107 61.1218 26.2133 61.3618 26.48C61.6018 26.7467 61.7831 27.072 61.9058 27.456C62.0338 27.84 62.0978 28.28 62.0978 28.776V34H60.1218V28.776C60.1218 28.2533 60.0071 27.8613 59.7778 27.6C59.5484 27.3333 59.2124 27.2 58.7698 27.2C58.5671 27.2 58.3778 27.2347 58.2018 27.304C58.0311 27.3733 57.8791 27.4747 57.7458 27.608C57.6178 27.736 57.5164 27.8987 57.4418 28.096C57.3671 28.2933 57.3298 28.52 57.3298 28.776V34H55.3458V28.776C55.3458 28.2267 55.2338 27.8267 55.0098 27.576C54.7911 27.3253 54.4684 27.2 54.0418 27.2C53.7538 27.2 53.4844 27.272 53.2338 27.416C52.9884 27.5547 52.7591 27.7467 52.5458 27.992V34H50.5698Z" fill="#24252C"/>
<g filter="url(#filter0_d_198_6977)">
<rect x="69" y="4" width="38" height="38" rx="5" fill="white"/>
</g>
<path d="M100.542 15.2016C100.542 12.3472 98.2257 10.0312 95.3981 10.0312C92.6513 10.0312 90.4162 12.1587 90.2546 14.8516H77.9749C77.2209 14.8516 76.6016 15.4709 76.6016 16.225V32.3824C76.6016 32.5171 76.6554 32.6248 76.7631 32.7056L80.8294 36.7988C80.9102 36.9065 81.0179 36.9873 81.1526 36.9873C81.1526 36.9873 81.1526 36.9873 81.1795 36.9873C81.1795 36.9873 81.1795 36.9873 81.2064 36.9873H94.4286C95.1827 36.9873 95.802 36.3679 95.802 35.6139V20.3182C98.468 20.1027 100.542 17.8946 100.542 15.2016ZM77.9749 15.6594H90.2546C90.3624 16.979 91.0087 18.1638 91.9242 18.9987H77.4094V16.225C77.4094 15.9018 77.6518 15.6594 77.9749 15.6594ZM80.237 32.7864C80.5332 32.7864 80.7486 33.0018 80.8025 33.2711C80.8025 33.298 80.8025 33.298 80.8025 33.325V35.5601L78.0019 32.7864H80.237ZM94.4286 36.1525H81.5835V33.4596C81.5835 33.4327 81.5835 33.4057 81.5835 33.3519C81.5835 32.5979 80.9641 31.9785 80.2101 31.9785H77.4094V19.8065H93.1091C93.6746 20.1027 94.3209 20.2643 94.9942 20.3182V35.587C94.9942 35.9101 94.7518 36.1525 94.4286 36.1525ZM95.3981 19.5372C94.6979 19.5372 94.0516 19.3757 93.4592 19.0794C93.4323 19.0525 93.3784 19.0256 93.3246 19.0256C91.9512 18.2985 91.0356 16.8443 91.0356 15.2016C91.0356 12.778 92.9745 10.8391 95.3981 10.8391C97.8217 10.8391 99.7606 12.778 99.7606 15.2016C99.7337 17.5983 97.7948 19.5372 95.3981 19.5372Z" fill="#6524EB"/>
<path d="M82.4477 21.8516H78.9469C78.7315 21.8516 78.543 22.0401 78.543 22.2555V25.7563C78.543 25.9717 78.7315 26.1602 78.9469 26.1602H82.4477C82.6631 26.1602 82.8516 25.9717 82.8516 25.7563V22.2555C82.8516 22.0401 82.6631 21.8516 82.4477 21.8516ZM82.0438 25.3523H79.3508V22.6594H82.0438V25.3523Z" fill="#6524EB"/>
<path d="M87.9672 21.8516H84.4664C84.251 21.8516 84.0625 22.0401 84.0625 22.2555V25.7563C84.0625 25.9717 84.251 26.1602 84.4664 26.1602H87.9672C88.1827 26.1602 88.3712 25.9717 88.3712 25.7563V22.2555C88.3712 22.0401 88.1827 21.8516 87.9672 21.8516ZM87.5633 25.3523H84.8704V22.6594H87.5633V25.3523Z" fill="#6524EB"/>
<path d="M93.4868 21.8516H89.986C89.7705 21.8516 89.582 22.0401 89.582 22.2555V25.7563C89.582 25.9717 89.7705 26.1602 89.986 26.1602H93.4868C93.7022 26.1602 93.8907 25.9717 93.8907 25.7563V22.2555C93.8907 22.0401 93.7022 21.8516 93.4868 21.8516ZM93.0828 25.3523H90.3899V22.6594H93.0828V25.3523Z" fill="#6524EB"/>
<path d="M82.4477 27.2422H78.9469C78.7315 27.2422 78.543 27.4307 78.543 27.6461V31.1469C78.543 31.3623 78.7315 31.5508 78.9469 31.5508H82.4477C82.6631 31.5508 82.8516 31.3623 82.8516 31.1469V27.6461C82.8516 27.4307 82.6631 27.2422 82.4477 27.2422ZM82.0438 30.743H79.3508V28.0501H82.0438V30.743Z" fill="#6524EB"/>
<path d="M87.9672 27.2422H84.4664C84.251 27.2422 84.0625 27.4307 84.0625 27.6461V31.1469C84.0625 31.3623 84.251 31.5508 84.4664 31.5508H87.9672C88.1827 31.5508 88.3712 31.3623 88.3712 31.1469V27.6461C88.3712 27.4307 88.1827 27.2422 87.9672 27.2422ZM87.5633 30.743H84.8704V28.0501H87.5633V30.743Z" fill="#6524EB"/>
<path d="M93.4868 27.2422H89.986C89.7705 27.2422 89.582 27.4307 89.582 27.6461V31.1469C89.582 31.3623 89.7705 31.5508 89.986 31.5508H93.4868C93.7022 31.5508 93.8907 31.3623 93.8907 31.1469V27.6461C93.8907 27.4307 93.7022 27.2422 93.4868 27.2422ZM93.0828 30.743H90.3899V28.0501H93.0828V30.743Z" fill="#6524EB"/>
<path d="M100.666 14.7703C100.666 17.9183 98.1136 20.4703 94.9656 20.4703C91.8176 20.4703 89.2656 17.9183 89.2656 14.7703C89.2656 11.6223 91.8176 9.07031 94.9656 9.07031C98.1136 9.07031 100.666 11.6223 100.666 14.7703ZM97.8372 12.6112C97.6285 12.4025 97.2902 12.4025 97.0815 12.6112C97.0765 12.6162 97.0717 12.6216 97.0673 12.6272L94.5933 15.7797L93.1016 14.2881C92.893 14.0794 92.5546 14.0794 92.3459 14.2881C92.1372 14.4968 92.1372 14.8351 92.3459 15.0438L94.2315 16.9294C94.4402 17.1381 94.7785 17.1381 94.9872 16.9294C94.9919 16.9248 94.9963 16.9199 95.0004 16.9147L97.8448 13.3592C98.0459 13.15 98.0434 12.8173 97.8372 12.6112Z" fill="#1AA850"/>
<defs>
<filter id="filter0_d_198_6977" x="65" y="0" width="46" height="46" filterUnits="userSpaceOnUse" color-interpolation-filters="sRGB">
<feFlood flood-opacity="0" result="BackgroundImageFix"/>
<feColorMatrix in="SourceAlpha" type="matrix" values="0 0 0 0 0 0 0 0 0 0 0 0 0 0 0 0 0 0 127 0" result="hardAlpha"/>
<feOffset/>
<feGaussianBlur stdDeviation="2"/>
<feComposite in2="hardAlpha" operator="out"/>
<feColorMatrix type="matrix" values="0 0 0 0 0 0 0 0 0 0 0 0 0 0 0 0 0 0 0.25 0"/>
<feBlend mode="normal" in2="BackgroundImageFix" result="effect1_dropShadow_198_6977"/>
<feBlend mode="normal" in="SourceGraphic" in2="effect1_dropShadow_198_6977" result="shape"/>
</filter>
</defs>
</svg>
