<svg width="96" height="35" viewBox="0 0 96 35" fill="none" xmlns="http://www.w3.org/2000/svg">
<path d="M9.57528 7.12926H8.02415C7.96449 6.79782 7.85346 6.50615 7.69105 6.25426C7.52865 6.00237 7.32978 5.78859 7.09446 5.61293C6.85914 5.43726 6.59564 5.30469 6.30398 5.2152C6.01563 5.12571 5.70904 5.08097 5.38423 5.08097C4.79759 5.08097 4.27225 5.22846 3.80824 5.52344C3.34754 5.81842 2.98295 6.25095 2.71449 6.82102C2.44934 7.3911 2.31676 8.08712 2.31676 8.90909C2.31676 9.73769 2.44934 10.437 2.71449 11.0071C2.98295 11.5772 3.3492 12.008 3.81321 12.2997C4.27723 12.5914 4.79924 12.7372 5.37926 12.7372C5.70076 12.7372 6.00568 12.6941 6.29403 12.608C6.5857 12.5185 6.8492 12.3875 7.08452 12.2152C7.31984 12.0429 7.5187 11.8324 7.68111 11.5838C7.84683 11.3319 7.96117 11.0436 8.02415 10.7188L9.57528 10.7237C9.49242 11.2242 9.33168 11.6849 9.09304 12.1058C8.85772 12.5234 8.55445 12.8847 8.18324 13.1896C7.81534 13.4912 7.39441 13.7249 6.92045 13.8906C6.4465 14.0563 5.92945 14.1392 5.36932 14.1392C4.48769 14.1392 3.70218 13.9304 3.01278 13.5128C2.32339 13.0919 1.77983 12.4903 1.3821 11.7081C0.987689 10.9259 0.790483 9.9929 0.790483 8.90909C0.790483 7.82197 0.989347 6.88897 1.38707 6.11008C1.7848 5.32789 2.32836 4.72798 3.01776 4.31037C3.70715 3.88944 4.491 3.67898 5.36932 3.67898C5.90956 3.67898 6.41335 3.75687 6.88068 3.91264C7.35133 4.0651 7.77391 4.29048 8.14844 4.58878C8.52296 4.88376 8.83286 5.24503 9.07812 5.67258C9.32339 6.09683 9.48911 6.58239 9.57528 7.12926ZM13.5165 14.169C13.0326 14.169 12.5951 14.0795 12.204 13.9006C11.8129 13.7183 11.503 13.4548 11.2743 13.1101C11.0489 12.7654 10.9363 12.3428 10.9363 11.8423C10.9363 11.4115 11.0191 11.0568 11.1848 10.7784C11.3506 10.5 11.5743 10.2796 11.856 10.1172C12.1377 9.95478 12.4526 9.83215 12.8006 9.74929C13.1486 9.66643 13.5033 9.60346 13.8645 9.56037C14.3219 9.50734 14.6931 9.46425 14.9782 9.43111C15.2632 9.39465 15.4703 9.33665 15.5996 9.2571C15.7289 9.17756 15.7935 9.0483 15.7935 8.86932V8.83452C15.7935 8.40033 15.6709 8.06392 15.4256 7.82528C15.1837 7.58665 14.8224 7.46733 14.3418 7.46733C13.8413 7.46733 13.4469 7.57836 13.1586 7.80043C12.8735 8.01918 12.6763 8.26278 12.5669 8.53125L11.1699 8.21307C11.3356 7.74905 11.5776 7.37453 11.8958 7.08949C12.2173 6.80114 12.5868 6.59233 13.0044 6.46307C13.4221 6.33049 13.8612 6.2642 14.3219 6.2642C14.6268 6.2642 14.95 6.30066 15.2914 6.37358C15.6361 6.44318 15.9576 6.57244 16.2559 6.76136C16.5575 6.95028 16.8044 7.22041 16.9966 7.57173C17.1889 7.91974 17.285 8.37216 17.285 8.92898V14H15.8333V12.956H15.7736C15.6775 13.1482 15.5333 13.3371 15.3411 13.5227C15.1489 13.7083 14.9019 13.8625 14.6003 13.9851C14.2987 14.1077 13.9374 14.169 13.5165 14.169ZM13.8397 12.9759C14.2507 12.9759 14.602 12.8946 14.8936 12.7322C15.1886 12.5698 15.4123 12.3577 15.5648 12.0959C15.7206 11.8307 15.7985 11.5473 15.7985 11.2457V10.2614C15.7454 10.3144 15.6427 10.3641 15.4902 10.4105C15.3411 10.4536 15.1704 10.4917 14.9782 10.5249C14.7859 10.5547 14.5987 10.5829 14.4164 10.6094C14.2341 10.6326 14.0816 10.6525 13.959 10.669C13.6706 10.7055 13.4071 10.7668 13.1685 10.853C12.9332 10.9392 12.7443 11.0634 12.6017 11.2259C12.4625 11.3849 12.3929 11.5971 12.3929 11.8622C12.3929 12.2301 12.5288 12.5085 12.8006 12.6974C13.0724 12.883 13.4187 12.9759 13.8397 12.9759ZM20.7514 3.81818V14H19.2649V3.81818H20.7514ZM26.0424 14.1541C25.2901 14.1541 24.6421 13.9934 24.0985 13.6719C23.5583 13.3471 23.1407 12.8913 22.8457 12.3047C22.554 11.7147 22.4082 11.0237 22.4082 10.2315C22.4082 9.44934 22.554 8.75994 22.8457 8.16335C23.1407 7.56676 23.5517 7.10109 24.0787 6.76633C24.609 6.43158 25.2288 6.2642 25.938 6.2642C26.3689 6.2642 26.7865 6.33546 27.1909 6.47798C27.5952 6.6205 27.9582 6.84422 28.2797 7.14915C28.6011 7.45407 28.8547 7.85014 29.0403 8.33736C29.2259 8.82126 29.3187 9.40956 29.3187 10.1023V10.6293H23.2484V9.51562H27.862C27.862 9.12453 27.7825 8.77817 27.6234 8.47656C27.4643 8.17164 27.2406 7.93134 26.9522 7.75568C26.6672 7.58002 26.3324 7.49219 25.948 7.49219C25.5304 7.49219 25.1658 7.59493 24.8542 7.80043C24.546 8.0026 24.3074 8.26776 24.1383 8.59588C23.9726 8.92069 23.8897 9.27367 23.8897 9.65483V10.5249C23.8897 11.0353 23.9792 11.4695 24.1582 11.8274C24.3405 12.1854 24.594 12.4588 24.9189 12.6477C25.2437 12.8333 25.6232 12.9261 26.0574 12.9261C26.3391 12.9261 26.5959 12.8864 26.8279 12.8068C27.06 12.724 27.2605 12.6013 27.4295 12.4389C27.5985 12.2765 27.7278 12.076 27.8173 11.8374L29.2243 12.0909C29.1116 12.5052 28.9094 12.8681 28.6177 13.1797C28.3294 13.4879 27.9664 13.7282 27.5289 13.9006C27.0948 14.0696 26.5993 14.1541 26.0424 14.1541ZM32.4545 9.46591V14H30.968V6.36364H32.3949V7.60653H32.4893C32.665 7.20218 32.9401 6.87737 33.3146 6.6321C33.6925 6.38684 34.1681 6.2642 34.7415 6.2642C35.2618 6.2642 35.7176 6.37358 36.1087 6.59233C36.4998 6.80777 36.803 7.12926 37.0185 7.55682C37.2339 7.98437 37.3416 8.51302 37.3416 9.14276V14H35.8551V9.32173C35.8551 8.76823 35.7109 8.3357 35.4226 8.02415C35.1342 7.70928 34.7382 7.55185 34.2344 7.55185C33.8897 7.55185 33.5831 7.62642 33.3146 7.77557C33.0495 7.92472 32.839 8.14347 32.6832 8.43182C32.5308 8.71686 32.4545 9.06155 32.4545 9.46591ZM42.1939 14.1491C41.5774 14.1491 41.0272 13.9917 40.5433 13.6768C40.0627 13.3587 39.6849 12.9062 39.4098 12.3196C39.138 11.7296 39.0021 11.022 39.0021 10.1967C39.0021 9.37145 39.1397 8.66548 39.4148 8.07884C39.6932 7.49219 40.0743 7.04309 40.5582 6.73153C41.0421 6.41998 41.5907 6.2642 42.2038 6.2642C42.6778 6.2642 43.0589 6.34375 43.3473 6.50284C43.639 6.65862 43.8643 6.84091 44.0234 7.04972C44.1858 7.25852 44.3118 7.44247 44.4013 7.60156H44.4908V3.81818H45.9773V14H44.5256V12.8118H44.4013C44.3118 12.9742 44.1825 13.1598 44.0135 13.3686C43.8478 13.5774 43.6191 13.7597 43.3274 13.9155C43.0357 14.0713 42.6579 14.1491 42.1939 14.1491ZM42.522 12.8814C42.9496 12.8814 43.3108 12.7687 43.6058 12.5433C43.9041 12.3146 44.1295 11.9981 44.282 11.5938C44.4377 11.1894 44.5156 10.7187 44.5156 10.1818C44.5156 9.65151 44.4394 9.1875 44.2869 8.78977C44.1345 8.39205 43.9107 8.08215 43.6158 7.86009C43.3208 7.63802 42.9562 7.52699 42.522 7.52699C42.0746 7.52699 41.7017 7.64299 41.4034 7.875C41.1051 8.10701 40.8797 8.42353 40.7273 8.82457C40.5781 9.22562 40.5036 9.67803 40.5036 10.1818C40.5036 10.6922 40.5798 11.1513 40.7322 11.5589C40.8847 11.9666 41.1101 12.2898 41.4084 12.5284C41.71 12.7637 42.0812 12.8814 42.522 12.8814ZM50.3212 14.169C49.8373 14.169 49.3998 14.0795 49.0087 13.9006C48.6176 13.7183 48.3077 13.4548 48.079 13.1101C47.8536 12.7654 47.7409 12.3428 47.7409 11.8423C47.7409 11.4115 47.8238 11.0568 47.9895 10.7784C48.1552 10.5 48.379 10.2796 48.6607 10.1172C48.9424 9.95478 49.2573 9.83215 49.6053 9.74929C49.9533 9.66643 50.3079 9.60346 50.6692 9.56037C51.1266 9.50734 51.4978 9.46425 51.7828 9.43111C52.0679 9.39465 52.275 9.33665 52.4043 9.2571C52.5336 9.17756 52.5982 9.0483 52.5982 8.86932V8.83452C52.5982 8.40033 52.4756 8.06392 52.2303 7.82528C51.9883 7.58665 51.6271 7.46733 51.1465 7.46733C50.646 7.46733 50.2516 7.57836 49.9632 7.80043C49.6782 8.01918 49.481 8.26278 49.3716 8.53125L47.9746 8.21307C48.1403 7.74905 48.3823 7.37453 48.7005 7.08949C49.022 6.80114 49.3915 6.59233 49.8091 6.46307C50.2267 6.33049 50.6659 6.2642 51.1266 6.2642C51.4315 6.2642 51.7547 6.30066 52.0961 6.37358C52.4408 6.44318 52.7623 6.57244 53.0605 6.76136C53.3622 6.95028 53.6091 7.22041 53.8013 7.57173C53.9935 7.91974 54.0897 8.37216 54.0897 8.92898V14H52.638V12.956H52.5783C52.4822 13.1482 52.338 13.3371 52.1458 13.5227C51.9535 13.7083 51.7066 13.8625 51.405 13.9851C51.1034 14.1077 50.7421 14.169 50.3212 14.169ZM50.6444 12.9759C51.0553 12.9759 51.4067 12.8946 51.6983 12.7322C51.9933 12.5698 52.217 12.3577 52.3695 12.0959C52.5253 11.8307 52.6032 11.5473 52.6032 11.2457V10.2614C52.5501 10.3144 52.4474 10.3641 52.2949 10.4105C52.1458 10.4536 51.9751 10.4917 51.7828 10.5249C51.5906 10.5547 51.4034 10.5829 51.2211 10.6094C51.0388 10.6326 50.8863 10.6525 50.7637 10.669C50.4753 10.7055 50.2118 10.7668 49.9732 10.853C49.7379 10.9392 49.5489 11.0634 49.4064 11.2259C49.2672 11.3849 49.1976 11.5971 49.1976 11.8622C49.1976 12.2301 49.3335 12.5085 49.6053 12.6974C49.8771 12.883 50.2234 12.9759 50.6444 12.9759ZM56.0696 14V6.36364H57.5064V7.5767H57.5859C57.7251 7.16572 57.9704 6.84257 58.3217 6.60724C58.6764 6.36861 59.0774 6.24929 59.5249 6.24929C59.6177 6.24929 59.727 6.2526 59.853 6.25923C59.9822 6.26586 60.0833 6.27415 60.1562 6.28409V7.70597C60.0966 7.68939 59.9905 7.67116 59.8381 7.65128C59.6856 7.62808 59.5331 7.61648 59.3807 7.61648C59.0294 7.61648 58.7161 7.69105 58.4411 7.8402C58.1693 7.98603 57.9538 8.18987 57.7947 8.4517C57.6357 8.71023 57.5561 9.00521 57.5561 9.33665V14H56.0696ZM1.11861 31V20.8182H4.8473C5.56984 20.8182 6.16809 20.9375 6.64205 21.1761C7.116 21.4115 7.47064 21.7313 7.70597 22.1357C7.94129 22.5367 8.05895 22.9891 8.05895 23.4929C8.05895 23.9171 7.98106 24.2751 7.82528 24.5668C7.66951 24.8551 7.4607 25.0871 7.19886 25.2628C6.94034 25.4351 6.6553 25.5611 6.34375 25.6406V25.7401C6.68182 25.7566 7.0116 25.866 7.3331 26.0682C7.65791 26.267 7.92637 26.5504 8.13849 26.9183C8.35062 27.2862 8.45668 27.7337 8.45668 28.2607C8.45668 28.781 8.33404 29.2483 8.08878 29.6626C7.84683 30.0736 7.4723 30.4001 6.9652 30.642C6.4581 30.8807 5.81013 31 5.02131 31H1.11861ZM2.65483 29.6825H4.87216C5.60795 29.6825 6.13494 29.54 6.45312 29.255C6.77131 28.9699 6.9304 28.6136 6.9304 28.1861C6.9304 27.8646 6.8492 27.5696 6.68679 27.3011C6.52438 27.0327 6.29238 26.8189 5.99077 26.6598C5.69247 26.5007 5.33783 26.4212 4.92685 26.4212H2.65483V29.6825ZM2.65483 25.223H4.71307C5.05777 25.223 5.36766 25.1567 5.64276 25.0241C5.92116 24.8916 6.14157 24.706 6.30398 24.4673C6.4697 24.2254 6.55256 23.9403 6.55256 23.6122C6.55256 23.1913 6.40507 22.8383 6.11009 22.5533C5.8151 22.2682 5.36269 22.1257 4.75284 22.1257H2.65483V25.223ZM13.3761 31.1541C12.6602 31.1541 12.0354 30.9901 11.5018 30.6619C10.9682 30.3338 10.5539 29.8748 10.2589 29.2848C9.9639 28.6948 9.81641 28.0054 9.81641 27.2166C9.81641 26.4245 9.9639 25.7318 10.2589 25.1385C10.5539 24.5452 10.9682 24.0845 11.5018 23.7564C12.0354 23.4283 12.6602 23.2642 13.3761 23.2642C14.092 23.2642 14.7167 23.4283 15.2504 23.7564C15.784 24.0845 16.1983 24.5452 16.4933 25.1385C16.7882 25.7318 16.9357 26.4245 16.9357 27.2166C16.9357 28.0054 16.7882 28.6948 16.4933 29.2848C16.1983 29.8748 15.784 30.3338 15.2504 30.6619C14.7167 30.9901 14.092 31.1541 13.3761 31.1541ZM13.381 29.9062C13.8451 29.9062 14.2295 29.7836 14.5344 29.5384C14.8394 29.2931 15.0647 28.9666 15.2106 28.5589C15.3597 28.1513 15.4343 27.7022 15.4343 27.2116C15.4343 26.7244 15.3597 26.277 15.2106 25.8693C15.0647 25.4583 14.8394 25.1286 14.5344 24.88C14.2295 24.6314 13.8451 24.5071 13.381 24.5071C12.9137 24.5071 12.5259 24.6314 12.2177 24.88C11.9128 25.1286 11.6857 25.4583 11.5366 25.8693C11.3907 26.277 11.3178 26.7244 11.3178 27.2116C11.3178 27.7022 11.3907 28.1513 11.5366 28.5589C11.6857 28.9666 11.9128 29.2931 12.2177 29.5384C12.5259 29.7836 12.9137 29.9062 13.381 29.9062ZM21.8116 31.1541C21.0957 31.1541 20.4709 30.9901 19.9373 30.6619C19.4037 30.3338 18.9894 29.8748 18.6944 29.2848C18.3994 28.6948 18.252 28.0054 18.252 27.2166C18.252 26.4245 18.3994 25.7318 18.6944 25.1385C18.9894 24.5452 19.4037 24.0845 19.9373 23.7564C20.4709 23.4283 21.0957 23.2642 21.8116 23.2642C22.5275 23.2642 23.1523 23.4283 23.6859 23.7564C24.2195 24.0845 24.6338 24.5452 24.9288 25.1385C25.2238 25.7318 25.3713 26.4245 25.3713 27.2166C25.3713 28.0054 25.2238 28.6948 24.9288 29.2848C24.6338 29.8748 24.2195 30.3338 23.6859 30.6619C23.1523 30.9901 22.5275 31.1541 21.8116 31.1541ZM21.8166 29.9062C22.2806 29.9062 22.6651 29.7836 22.97 29.5384C23.2749 29.2931 23.5003 28.9666 23.6461 28.5589C23.7953 28.1513 23.8699 27.7022 23.8699 27.2116C23.8699 26.7244 23.7953 26.277 23.6461 25.8693C23.5003 25.4583 23.2749 25.1286 22.97 24.88C22.6651 24.6314 22.2806 24.5071 21.8166 24.5071C21.3493 24.5071 20.9615 24.6314 20.6532 24.88C20.3483 25.1286 20.1213 25.4583 19.9721 25.8693C19.8263 26.277 19.7534 26.7244 19.7534 27.2116C19.7534 27.7022 19.8263 28.1513 19.9721 28.5589C20.1213 28.9666 20.3483 29.2931 20.6532 29.5384C20.9615 29.7836 21.3493 29.9062 21.8166 29.9062ZM28.3977 28.4098L28.3878 26.5952H28.6463L31.6889 23.3636H33.4688L29.9986 27.0426H29.7649L28.3977 28.4098ZM27.0305 31V20.8182H28.517V31H27.0305ZM31.853 31L29.1186 27.3707L30.1428 26.3317L33.6776 31H31.853ZM34.8235 31V23.3636H36.31V31H34.8235ZM35.5742 22.1854C35.3157 22.1854 35.0936 22.0992 34.908 21.9268C34.7257 21.7512 34.6346 21.5424 34.6346 21.3004C34.6346 21.0552 34.7257 20.8464 34.908 20.674C35.0936 20.4983 35.3157 20.4105 35.5742 20.4105C35.8327 20.4105 36.0531 20.4983 36.2354 20.674C36.421 20.8464 36.5138 21.0552 36.5138 21.3004C36.5138 21.5424 36.421 21.7512 36.2354 21.9268C36.0531 22.0992 35.8327 22.1854 35.5742 22.1854ZM39.7963 26.4659V31H38.3098V23.3636H39.7367V24.6065H39.8311C40.0068 24.2022 40.2819 23.8774 40.6564 23.6321C41.0343 23.3868 41.5099 23.2642 42.0833 23.2642C42.6036 23.2642 43.0594 23.3736 43.4505 23.5923C43.8416 23.8078 44.1448 24.1293 44.3603 24.5568C44.5757 24.9844 44.6834 25.513 44.6834 26.1428V31H43.1969V26.3217C43.1969 25.7682 43.0527 25.3357 42.7644 25.0241C42.476 24.7093 42.08 24.5518 41.5762 24.5518C41.2315 24.5518 40.9249 24.6264 40.6564 24.7756C40.3913 24.9247 40.1808 25.1435 40.025 25.4318C39.8726 25.7169 39.7963 26.0616 39.7963 26.4659ZM49.8787 34.0227C49.2722 34.0227 48.7502 33.9432 48.3127 33.7841C47.8785 33.625 47.5239 33.4145 47.2488 33.1527C46.9737 32.8909 46.7682 32.6042 46.6323 32.2926L47.91 31.7656C47.9995 31.9115 48.1188 32.0656 48.2679 32.228C48.4204 32.3937 48.6259 32.5346 48.8844 32.6506C49.1462 32.7666 49.4827 32.8246 49.8936 32.8246C50.4571 32.8246 50.9228 32.687 51.2907 32.4119C51.6586 32.1402 51.8425 31.706 51.8425 31.1094V29.608H51.748C51.6586 29.7704 51.5293 29.951 51.3603 30.1499C51.1945 30.3487 50.9659 30.5211 50.6742 30.6669C50.3825 30.8127 50.003 30.8857 49.5357 30.8857C48.9325 30.8857 48.3889 30.7448 47.905 30.4631C47.4244 30.178 47.0433 29.7588 46.7615 29.2053C46.4831 28.6484 46.3439 27.964 46.3439 27.152C46.3439 26.34 46.4815 25.6439 46.7566 25.0639C47.035 24.4839 47.4161 24.0398 47.9 23.7315C48.3839 23.42 48.9325 23.2642 49.5456 23.2642C50.0196 23.2642 50.4024 23.3438 50.6941 23.5028C50.9857 23.6586 51.2128 23.8409 51.3752 24.0497C51.5409 24.2585 51.6685 24.4425 51.758 24.6016H51.8674V23.3636H53.324V31.169C53.324 31.8253 53.1716 32.3639 52.8667 32.7848C52.5617 33.2057 52.1491 33.5173 51.6287 33.7195C51.1117 33.9216 50.5284 34.0227 49.8787 34.0227ZM49.8638 29.6527C50.2914 29.6527 50.6526 29.5533 50.9476 29.3544C51.2459 29.1522 51.4713 28.8639 51.6238 28.4893C51.7795 28.1115 51.8574 27.6591 51.8574 27.1321C51.8574 26.6184 51.7812 26.166 51.6287 25.7749C51.4763 25.3838 51.2525 25.0788 50.9576 24.8601C50.6626 24.638 50.298 24.527 49.8638 24.527C49.4164 24.527 49.0435 24.643 48.7452 24.875C48.4469 25.1037 48.2215 25.4152 48.0691 25.8097C47.9199 26.2041 47.8453 26.6449 47.8453 27.1321C47.8453 27.6326 47.9216 28.0717 48.074 28.4496C48.2265 28.8274 48.4519 29.1224 48.7502 29.3345C49.0518 29.5466 49.423 29.6527 49.8638 29.6527ZM61.04 25.228L59.6926 25.4666C59.6363 25.2943 59.5468 25.1302 59.4242 24.9744C59.3049 24.8187 59.1425 24.6911 58.937 24.5916C58.7315 24.4922 58.4746 24.4425 58.1664 24.4425C57.7454 24.4425 57.3941 24.5369 57.1124 24.7259C56.8307 24.9115 56.6898 25.1518 56.6898 25.4467C56.6898 25.7019 56.7843 25.9074 56.9732 26.0632C57.1621 26.219 57.467 26.3466 57.888 26.446L59.101 26.7244C59.8037 26.8868 60.3274 27.1371 60.6721 27.4751C61.0167 27.8132 61.1891 28.2524 61.1891 28.7926C61.1891 29.25 61.0565 29.6577 60.7914 30.0156C60.5295 30.3703 60.1633 30.6487 59.6926 30.8509C59.2253 31.053 58.6834 31.1541 58.0669 31.1541C57.2118 31.1541 56.5141 30.9718 55.9739 30.6072C55.4337 30.2393 55.1022 29.7173 54.9796 29.0412L56.4164 28.8224C56.5059 29.197 56.6898 29.4804 56.9682 29.6726C57.2466 29.8615 57.6096 29.956 58.057 29.956C58.5442 29.956 58.9337 29.8549 59.2253 29.6527C59.517 29.4472 59.6628 29.197 59.6628 28.902C59.6628 28.6634 59.5733 28.4628 59.3944 28.3004C59.2187 28.138 58.9486 28.0154 58.584 27.9325L57.2914 27.6491C56.5788 27.4867 56.0518 27.2282 55.7104 26.8736C55.3723 26.5189 55.2033 26.0698 55.2033 25.5263C55.2033 25.0755 55.3292 24.6811 55.5811 24.343C55.833 24.005 56.181 23.7415 56.6252 23.5526C57.0693 23.3603 57.5781 23.2642 58.1515 23.2642C58.9767 23.2642 59.6264 23.4432 60.1003 23.8011C60.5743 24.1558 60.8875 24.6314 61.04 25.228Z" fill="#24252C"/>
<path d="M95.9997 10.8216V8.1039C96.001 7.20803 95.6546 6.34916 95.0361 5.71493C94.4164 5.08207 93.5771 4.72729 92.7017 4.72866H90.7421V3.09586C90.7421 2.49038 90.2629 2 89.6713 2C89.0796 2 88.6005 2.49038 88.6005 3.09586V4.72866H84.0708V3.09586C84.0708 2.49038 83.5916 2 82.9999 2C82.4083 2 81.9291 2.49038 81.9291 3.09586V4.72866H77.3994V3.09586C77.3994 2.49038 76.9203 2 76.3286 2C75.737 2 75.2578 2.49038 75.2578 3.09586V4.72866H73.2982C72.4227 4.7273 71.5835 5.08207 70.9637 5.71493C70.3453 6.34916 69.9987 7.20803 70 8.1039V10.8216H95.9997Z" fill="#5F33E1"/>
<path d="M70 13.0156V28.9604C69.9987 29.8563 70.3453 30.7152 70.9637 31.3494C71.5835 31.9822 72.4227 32.337 73.2982 32.3357H92.7015C93.5769 32.337 94.4162 31.9822 95.0359 31.3494C95.6543 30.7152 96.001 29.8563 95.9997 28.9604V13.0156H70ZM77.3056 29.3069H75.354C74.7678 29.2987 74.2979 28.8096 74.2979 28.211C74.2979 27.6124 74.7678 27.1234 75.354 27.1152H77.3069H77.3056C77.8905 27.1248 78.3604 27.6124 78.3604 28.211C78.3604 28.8096 77.8905 29.2973 77.3056 29.3069ZM77.3056 23.7715H75.354C74.7678 23.7633 74.2979 23.2742 74.2979 22.6756C74.2979 22.077 74.7678 21.588 75.354 21.5798H77.3069H77.3056C77.8905 21.588 78.3617 22.077 78.3617 22.6756C78.3617 23.2742 77.8919 23.7633 77.3056 23.7715ZM77.3056 18.2361H75.354C74.7678 18.2279 74.2979 17.7389 74.2979 17.1403C74.2979 16.5417 74.7678 16.0526 75.354 16.0444H77.3069H77.3056C77.8905 16.054 78.3604 16.5417 78.3604 17.1403C78.3604 17.7389 77.8905 18.2265 77.3056 18.2361ZM83.9434 29.3069H81.9905C81.4055 29.2987 80.9344 28.8096 80.9344 28.211C80.9344 27.6124 81.4055 27.1234 81.9905 27.1152H83.9434C84.5283 27.1248 84.9968 27.6124 84.9968 28.211C84.9968 28.8096 84.5283 29.2973 83.9434 29.3069ZM83.9434 23.7715H81.9905C81.4055 23.7633 80.9344 23.2742 80.9344 22.6756C80.9344 22.077 81.4055 21.588 81.9905 21.5798H83.9434C84.5283 21.588 84.9981 22.077 84.9981 22.6756C84.9981 23.2742 84.5283 23.7633 83.9434 23.7715ZM83.9434 18.2361H81.9905C81.4055 18.2279 80.9344 17.7389 80.9344 17.1403C80.9344 16.5417 81.4055 16.0526 81.9905 16.0444H83.9434C84.5283 16.054 84.9968 16.5417 84.9968 17.1403C84.9968 17.7389 84.5283 18.2265 83.9434 18.2361ZM90.6466 29.3069H88.6937C88.1074 29.2987 87.6376 28.8096 87.6376 28.211C87.6376 27.6124 88.1087 27.1234 88.6937 27.1152H90.6466H90.6452C91.2302 27.1248 91.7 27.6124 91.7 28.211C91.7 28.8096 91.2302 29.2973 90.6452 29.3069H90.6466ZM90.6466 23.7715H88.6937C88.1074 23.7633 87.6376 23.2742 87.6376 22.6756C87.6376 22.077 88.1087 21.588 88.6937 21.5798H90.6466H90.6452C91.2315 21.588 91.7013 22.077 91.7013 22.6756C91.7013 23.2742 91.2315 23.7633 90.6452 23.7715H90.6466ZM90.6466 18.2361H88.6937C88.1074 18.2279 87.6376 17.7389 87.6376 17.1403C87.6376 16.5417 88.1087 16.0526 88.6937 16.0444H90.6466H90.6452C91.2302 16.054 91.7 16.5417 91.7 17.1403C91.7 17.7389 91.2302 18.2265 90.6452 18.2361H90.6466Z" fill="#B5A0F3"/>
</svg>
