<svg width="160" height="62" viewBox="0 0 160 62" fill="none" xmlns="http://www.w3.org/2000/svg">
<rect width="160" height="62" rx="31" fill="#5F33E1"/>
<path d="M79.6881 35.249C79.8495 35.249 79.9925 35.3113 80.1171 35.436L81.2831 36.701C80.6378 37.5003 79.8421 38.1127 78.8961 38.538C77.9575 38.9633 76.8281 39.176 75.5081 39.176C74.3275 39.176 73.2641 38.9743 72.3181 38.571C71.3795 38.1677 70.5765 37.6067 69.9091 36.888C69.2418 36.1693 68.7285 35.3113 68.3691 34.314C68.0171 33.3167 67.8411 32.2277 67.8411 31.047C67.8411 29.8517 68.0318 28.759 68.4131 27.769C68.7945 26.7717 69.3298 25.9137 70.0191 25.195C70.7158 24.4763 71.5445 23.919 72.5051 23.523C73.4658 23.1197 74.5291 22.918 75.6951 22.918C76.8538 22.918 77.8805 23.1087 78.7751 23.49C79.6771 23.8713 80.4435 24.37 81.0741 24.986L80.0841 26.361C80.0255 26.449 79.9485 26.526 79.8531 26.592C79.7651 26.658 79.6405 26.691 79.4791 26.691C79.3691 26.691 79.2555 26.6617 79.1381 26.603C79.0208 26.537 78.8925 26.46 78.7531 26.372C78.6138 26.2767 78.4525 26.174 78.2691 26.064C78.0858 25.954 77.8731 25.855 77.6311 25.767C77.3891 25.6717 77.1068 25.5947 76.7841 25.536C76.4688 25.47 76.1021 25.437 75.6841 25.437C74.9728 25.437 74.3201 25.5653 73.7261 25.822C73.1395 26.0713 72.6335 26.438 72.2081 26.922C71.7828 27.3987 71.4528 27.9853 71.2181 28.682C70.9835 29.3713 70.8661 30.1597 70.8661 31.047C70.8661 31.9417 70.9908 32.7373 71.2401 33.434C71.4968 34.1307 71.8415 34.7173 72.2741 35.194C72.7068 35.6707 73.2165 36.0373 73.8031 36.294C74.3898 36.5433 75.0205 36.668 75.6951 36.668C76.0985 36.668 76.4615 36.646 76.7841 36.602C77.1141 36.558 77.4148 36.4883 77.6861 36.393C77.9648 36.2977 78.2251 36.1767 78.4671 36.03C78.7165 35.876 78.9621 35.689 79.2041 35.469C79.2775 35.403 79.3545 35.3517 79.4351 35.315C79.5158 35.271 79.6001 35.249 79.6881 35.249ZM85.4011 29.672C85.7531 28.9973 86.1711 28.4693 86.6551 28.088C87.1391 27.6993 87.7111 27.505 88.3711 27.505C88.8918 27.505 89.3098 27.6187 89.6251 27.846L89.4491 29.881C89.4124 30.013 89.3574 30.1083 89.2841 30.167C89.2181 30.2183 89.1264 30.244 89.0091 30.244C88.8991 30.244 88.7341 30.2257 88.5141 30.189C88.3014 30.1523 88.0924 30.134 87.8871 30.134C87.5864 30.134 87.3188 30.178 87.0841 30.266C86.8494 30.354 86.6368 30.4823 86.4461 30.651C86.2628 30.8123 86.0978 31.0103 85.9511 31.245C85.8118 31.4797 85.6798 31.7473 85.5551 32.048V39H82.8381V27.714H84.4331C84.7118 27.714 84.9061 27.7653 85.0161 27.868C85.1261 27.9633 85.1994 28.1393 85.2361 28.396L85.4011 29.672ZM97.9939 32.059C97.9939 31.707 97.9425 31.377 97.8399 31.069C97.7445 30.7537 97.5979 30.4787 97.3999 30.244C97.2019 30.0093 96.9489 29.826 96.6409 29.694C96.3402 29.5547 95.9882 29.485 95.5849 29.485C94.8002 29.485 94.1805 29.7087 93.7259 30.156C93.2785 30.6033 92.9925 31.2377 92.8679 32.059H97.9939ZM92.8129 33.698C92.8569 34.2773 92.9595 34.7797 93.1209 35.205C93.2822 35.623 93.4949 35.9713 93.7589 36.25C94.0229 36.5213 94.3345 36.7267 94.6939 36.866C95.0605 36.998 95.4639 37.064 95.9039 37.064C96.3439 37.064 96.7215 37.0127 97.0369 36.91C97.3595 36.8073 97.6382 36.6937 97.8729 36.569C98.1149 36.4443 98.3239 36.3307 98.4999 36.228C98.6832 36.1253 98.8592 36.074 99.0279 36.074C99.2552 36.074 99.4239 36.1583 99.5339 36.327L100.315 37.317C100.014 37.669 99.6769 37.966 99.3029 38.208C98.9289 38.4427 98.5365 38.6333 98.1259 38.78C97.7225 38.9193 97.3082 39.0183 96.8829 39.077C96.4649 39.1357 96.0579 39.165 95.6619 39.165C94.8772 39.165 94.1475 39.0367 93.4729 38.78C92.7982 38.516 92.2115 38.131 91.7129 37.625C91.2142 37.1117 90.8219 36.481 90.5359 35.733C90.2499 34.9777 90.1069 34.105 90.1069 33.115C90.1069 32.345 90.2315 31.6227 90.4809 30.948C90.7302 30.266 91.0859 29.6757 91.5479 29.177C92.0172 28.671 92.5855 28.2713 93.2529 27.978C93.9275 27.6847 94.6865 27.538 95.5299 27.538C96.2412 27.538 96.8975 27.6517 97.4989 27.879C98.1002 28.1063 98.6172 28.44 99.0499 28.88C99.4825 29.3127 99.8199 29.848 100.062 30.486C100.311 31.1167 100.436 31.839 100.436 32.653C100.436 33.0637 100.392 33.3423 100.304 33.489C100.216 33.6283 100.047 33.698 99.7979 33.698H92.8129ZM108.437 34.182C107.652 34.2187 106.992 34.2883 106.457 34.391C105.921 34.4863 105.492 34.611 105.17 34.765C104.847 34.919 104.616 35.0987 104.477 35.304C104.337 35.5093 104.268 35.733 104.268 35.975C104.268 36.4517 104.407 36.7927 104.686 36.998C104.972 37.2033 105.342 37.306 105.797 37.306C106.354 37.306 106.834 37.207 107.238 37.009C107.648 36.8037 108.048 36.4957 108.437 36.085V34.182ZM102.211 29.287C103.509 28.099 105.071 27.505 106.897 27.505C107.557 27.505 108.147 27.615 108.668 27.835C109.188 28.0477 109.628 28.3483 109.988 28.737C110.347 29.1183 110.618 29.5767 110.802 30.112C110.992 30.6473 111.088 31.234 111.088 31.872V39H109.856C109.599 39 109.401 38.9633 109.262 38.89C109.122 38.8093 109.012 38.6517 108.932 38.417L108.69 37.603C108.404 37.8597 108.125 38.087 107.854 38.285C107.582 38.4757 107.3 38.637 107.007 38.769C106.713 38.901 106.398 39 106.061 39.066C105.731 39.1393 105.364 39.176 104.961 39.176C104.484 39.176 104.044 39.1137 103.641 38.989C103.237 38.857 102.889 38.6627 102.596 38.406C102.302 38.1493 102.075 37.8303 101.914 37.449C101.752 37.0677 101.672 36.624 101.672 36.118C101.672 35.832 101.719 35.5497 101.815 35.271C101.91 34.985 102.064 34.7137 102.277 34.457C102.497 34.2003 102.779 33.9583 103.124 33.731C103.468 33.5037 103.89 33.3057 104.389 33.137C104.895 32.9683 105.481 32.8327 106.149 32.73C106.816 32.62 107.579 32.554 108.437 32.532V31.872C108.437 31.1167 108.275 30.5593 107.953 30.2C107.63 29.8333 107.164 29.65 106.556 29.65C106.116 29.65 105.749 29.7013 105.456 29.804C105.17 29.9067 104.917 30.024 104.697 30.156C104.477 30.2807 104.275 30.3943 104.092 30.497C103.916 30.5997 103.718 30.651 103.498 30.651C103.307 30.651 103.146 30.6033 103.014 30.508C102.882 30.4053 102.775 30.288 102.695 30.156L102.211 29.287ZM117.258 39.176C116.276 39.176 115.52 38.901 114.992 38.351C114.472 37.7937 114.211 37.0273 114.211 36.052V29.749H113.056C112.91 29.749 112.785 29.7013 112.682 29.606C112.58 29.5107 112.528 29.3677 112.528 29.177V28.099L114.343 27.802L114.915 24.722C114.952 24.5753 115.022 24.4617 115.124 24.381C115.227 24.3003 115.359 24.26 115.52 24.26H116.928V27.813H119.942V29.749H116.928V35.865C116.928 36.217 117.013 36.492 117.181 36.69C117.357 36.888 117.596 36.987 117.896 36.987C118.065 36.987 118.204 36.9687 118.314 36.932C118.432 36.888 118.531 36.844 118.611 36.8C118.699 36.756 118.776 36.7157 118.842 36.679C118.908 36.635 118.974 36.613 119.04 36.613C119.121 36.613 119.187 36.635 119.238 36.679C119.29 36.7157 119.345 36.7743 119.403 36.855L120.217 38.175C119.821 38.505 119.367 38.7543 118.853 38.923C118.34 39.0917 117.808 39.176 117.258 39.176ZM128.867 32.059C128.867 31.707 128.816 31.377 128.713 31.069C128.618 30.7537 128.471 30.4787 128.273 30.244C128.075 30.0093 127.822 29.826 127.514 29.694C127.213 29.5547 126.861 29.485 126.458 29.485C125.673 29.485 125.054 29.7087 124.599 30.156C124.152 30.6033 123.866 31.2377 123.741 32.059H128.867ZM123.686 33.698C123.73 34.2773 123.833 34.7797 123.994 35.205C124.155 35.623 124.368 35.9713 124.632 36.25C124.896 36.5213 125.208 36.7267 125.567 36.866C125.934 36.998 126.337 37.064 126.777 37.064C127.217 37.064 127.595 37.0127 127.91 36.91C128.233 36.8073 128.511 36.6937 128.746 36.569C128.988 36.4443 129.197 36.3307 129.373 36.228C129.556 36.1253 129.732 36.074 129.901 36.074C130.128 36.074 130.297 36.1583 130.407 36.327L131.188 37.317C130.887 37.669 130.55 37.966 130.176 38.208C129.802 38.4427 129.41 38.6333 128.999 38.78C128.596 38.9193 128.181 39.0183 127.756 39.077C127.338 39.1357 126.931 39.165 126.535 39.165C125.75 39.165 125.021 39.0367 124.346 38.78C123.671 38.516 123.085 38.131 122.586 37.625C122.087 37.1117 121.695 36.481 121.409 35.733C121.123 34.9777 120.98 34.105 120.98 33.115C120.98 32.345 121.105 31.6227 121.354 30.948C121.603 30.266 121.959 29.6757 122.421 29.177C122.89 28.671 123.459 28.2713 124.126 27.978C124.801 27.6847 125.56 27.538 126.403 27.538C127.114 27.538 127.771 27.6517 128.372 27.879C128.973 28.1063 129.49 28.44 129.923 28.88C130.356 29.3127 130.693 29.848 130.935 30.486C131.184 31.1167 131.309 31.839 131.309 32.653C131.309 33.0637 131.265 33.3423 131.177 33.489C131.089 33.6283 130.92 33.698 130.671 33.698H123.686Z" fill="white"/>
<g filter="url(#filter0_d_202_6997)">
<rect x="8" y="7" width="48" height="48" rx="24" fill="#5F33E1"/>
</g>
<path d="M32 23C32.5523 23 33 23.4477 33 24V30H39C39.5523 30 40 30.4477 40 31C40 31.5523 39.5523 32 39 32H33V38C33 38.5523 32.5523 39 32 39C31.4477 39 31 38.5523 31 38V32H25C24.4477 32 24 31.5523 24 31C24 30.4477 24.4477 30 25 30H31V24C31 23.4477 31.4477 23 32 23Z" fill="white"/>
<defs>
<filter id="filter0_d_202_6997" x="4" y="3" width="56" height="56" filterUnits="userSpaceOnUse" color-interpolation-filters="sRGB">
<feFlood flood-opacity="0" result="BackgroundImageFix"/>
<feColorMatrix in="SourceAlpha" type="matrix" values="0 0 0 0 0 0 0 0 0 0 0 0 0 0 0 0 0 0 127 0" result="hardAlpha"/>
<feOffset/>
<feGaussianBlur stdDeviation="2"/>
<feComposite in2="hardAlpha" operator="out"/>
<feColorMatrix type="matrix" values="0 0 0 0 0.756863 0 0 0 0 0.686275 0 0 0 0 0.952941 0 0 0 1 0"/>
<feBlend mode="normal" in2="BackgroundImageFix" result="effect1_dropShadow_202_6997"/>
<feBlend mode="normal" in="SourceGraphic" in2="effect1_dropShadow_202_6997" result="shape"/>
</filter>
</defs>
</svg>
