<svg width="28" height="31" viewBox="0 0 28 31" fill="none" xmlns="http://www.w3.org/2000/svg">
<path fill-rule="evenodd" clip-rule="evenodd" d="M27.0129 12.0925L26.0129 22.736C26.0129 26.7626 22.7184 30.0561 18.6928 30.0561H8.32012C4.29455 30.0561 1 26.7626 1 22.736L0 12.0925C0 10.1567 0.819416 8.49106 2.35197 7.3101L9.82008 1.55432C12.0221 -0.143108 14.9899 -0.143108 17.1918 1.55432L24.66 7.3101C26.1925 8.49106 27.0129 10.1567 27.0129 12.0925ZM8.99055 23.6349C8.57935 23.6349 8.24662 23.3021 8.24662 22.8909C8.24662 22.4797 8.57935 22.147 8.99055 22.147H18.0224C18.4336 22.147 18.7663 22.4797 18.7663 22.8909C18.7663 23.3021 18.4336 23.6349 18.0224 23.6349H8.99055Z" fill="#5F33E1"/>
</svg>
