<svg width="12" height="19" viewBox="0 0 12 19" fill="none" xmlns="http://www.w3.org/2000/svg">
<path d="M11.1181 5.52887C11.1181 7.39361 10.2485 8.70546 9.2483 10.2234C8.36229 11.4712 7.62988 12.8213 7.06691 14.2444C6.64061 15.3634 6.30445 16.5148 6.06166 17.6874C6.06166 17.8207 6.0087 17.9485 5.91444 18.0428C5.82018 18.137 5.69234 18.19 5.55903 18.19C5.42573 18.19 5.29788 18.137 5.20362 18.0428C5.10936 17.9485 5.05641 17.8207 5.05641 17.6874C4.81361 16.5148 4.47746 15.3634 4.05116 14.2444C3.48819 12.8213 2.75578 11.4712 1.86977 10.2234C0.864515 8.71552 0 7.39361 0 5.52887C0 2.86496 1.72903 0 5.52888 0C9.32872 0 11.1181 2.86496 11.1181 5.52887Z" fill="#24252C"/>
</svg>
