<svg width="288" height="85" viewBox="0 0 288 85" fill="none" xmlns="http://www.w3.org/2000/svg">
<path d="M229.561 46.7557C229.561 48.321 230.105 49.6481 231.194 50.737C232.351 51.826 233.712 52.3704 235.277 52.3704H245.18V64.2125H235.277C232.623 64.2125 230.105 63.7361 227.723 62.7833C225.409 61.7624 223.367 60.4012 221.598 58.6998C219.896 56.9303 218.535 54.8886 217.514 52.5746C216.493 50.2606 215.983 47.7765 215.983 45.1223V29.8093H208.633V18.4777H215.983V0H229.561V46.7557Z" fill="black"/>
<path d="M176.732 12.3516C180.407 12.3516 183.878 13.0662 187.145 14.4954C190.411 15.8565 193.236 17.7622 195.618 20.2122C198.068 22.5943 199.973 25.3846 201.335 28.5833C202.764 31.782 203.478 35.219 203.478 38.8941C203.478 42.6373 202.764 46.1422 201.335 49.409C199.973 52.6758 198.068 55.5342 195.618 57.9843C193.236 60.3663 190.411 62.2719 187.145 63.7011C183.878 65.0623 180.407 65.7429 176.732 65.7429C171.695 65.7429 167.51 64.3817 164.175 61.6594V61.5573L169.279 52.1653L169.381 52.2674C171.219 53.0841 173.091 53.4925 174.996 53.4925C176.97 53.4925 178.841 53.1182 180.611 52.3695C182.38 51.6209 183.912 50.6 185.205 49.3069C186.566 47.9458 187.621 46.3804 188.37 44.6109C189.118 42.8414 189.493 40.9358 189.493 38.8941C189.493 36.9204 189.118 35.0828 188.37 33.3814C187.621 31.6119 186.566 30.0806 185.205 28.7875C183.912 27.4944 182.38 26.4735 180.611 25.7249C178.841 24.9763 176.97 24.602 174.996 24.602C172.954 24.602 171.049 24.9763 169.279 25.7249C167.578 26.4735 166.081 27.4944 164.788 28.7875C163.494 30.0806 162.474 31.6119 161.725 33.3814C160.976 35.0828 160.602 36.9204 160.602 38.8941V84.6289H146.82V13.1683H160.602V20.1101C164.277 14.9378 169.654 12.3516 176.732 12.3516Z" fill="black"/>
<path d="M87.6328 64.2152L101.312 45.6354L113.767 51.3523L104.273 64.2152H87.6328ZM122.955 38.8977L141.739 64.2152H124.997V64.1131L106.417 38.9998L87.7349 13.1719H104.273L114.584 30.5266L124.997 13.1719H141.739L141.535 13.274L122.955 38.8977Z" fill="black"/>
<path d="M65.0269 12.3516C68.634 12.3516 72.0368 13.0662 75.2356 14.4954C78.4343 15.8565 81.2246 17.7281 83.6067 20.1101C85.9887 22.4922 87.8603 25.2825 89.2214 28.4812C90.6506 31.68 91.3652 35.1169 91.3652 38.792C91.3652 40.7657 91.1611 42.6713 90.7527 44.5088L90.6506 44.713H64.7206L58.1871 34.3002H77.5836C76.6307 31.4418 75.0314 29.0938 72.7855 27.2562C70.6076 25.4186 68.0214 24.4999 65.0269 24.4999C63.1893 24.4999 61.4539 24.8742 59.8205 25.6228C58.1871 26.3715 56.7579 27.3923 55.5328 28.6854C54.3759 29.9105 53.4571 31.4077 52.7765 33.1772C52.0959 34.8787 51.7556 36.7503 51.7556 38.792C51.7556 40.3573 52.0619 41.9907 52.6744 43.6922C53.2869 45.3255 54.1717 46.8228 55.3287 48.184C56.4856 49.5451 57.8808 50.7021 59.5142 51.6549C61.1476 52.5397 62.9852 52.982 65.0269 52.982C66.8645 52.982 68.5319 52.7438 70.0291 52.2674C71.5945 51.723 73.0577 50.566 74.4189 48.7965L74.521 48.6944L74.7251 48.7965L86.5672 54.0029L86.363 54.2071C83.9129 57.61 80.7823 60.2642 76.971 62.1698C73.2279 64.0754 69.2465 65.0283 65.0269 65.0283C61.3518 65.0283 57.8808 64.3477 54.6141 62.9865C51.4153 61.6254 48.625 59.7538 46.243 57.3718C43.8609 54.9897 41.9553 52.1994 40.5261 49.0007C39.165 45.8019 38.4844 42.3991 38.4844 38.792C38.4844 35.1169 39.165 31.68 40.5261 28.4812C41.9553 25.2825 43.8609 22.4922 46.243 20.1101C48.625 17.7281 51.4153 15.8565 54.6141 14.4954C57.8808 13.0662 61.3518 12.3516 65.0269 12.3516Z" fill="black"/>
<path d="M41.6513 15.21L40.4263 17.2517L35.2199 26.5416L35.1178 26.4395C32.8719 25.1464 30.4558 24.4999 27.8696 24.4999C26.1001 24.4999 24.4327 24.8061 22.8674 25.4186C21.3021 25.9631 19.9069 26.7798 18.6819 27.8687C17.4568 28.8896 16.4019 30.1146 15.5172 31.5438C14.7005 32.9731 14.156 34.5044 13.8838 36.1377V64.2116H0V13.1683H13.8838V19.8039C17.4908 14.8357 22.7653 12.3516 29.7072 12.3516C33.7907 12.3516 37.738 13.3044 41.5493 15.21H41.6513Z" fill="black"/>
<path d="M230.203 18.375H242.709V29.8597L230.203 18.375Z" fill="black"/>
<path d="M249.602 33.1824C249.602 31.2091 251.201 29.6094 253.175 29.6094H283.801C285.774 29.6094 287.374 31.2091 287.374 33.1824V61.9948C287.374 63.9681 285.774 65.5678 283.801 65.5678H272.175C271.319 65.5678 270.492 65.875 269.843 66.4334L262.58 72.688C260.22 74.7208 256.636 72.5526 257.34 69.5181V69.5181C257.809 67.4983 256.276 65.5678 254.202 65.5678H253.175C251.201 65.5678 249.602 63.9681 249.602 61.9948V33.1824Z" fill="#6524EB"/>
<path d="M265.43 53.5995V36.0058H268.662C268.987 36.0058 269.256 36.0794 269.47 36.2264C269.694 36.3734 269.851 36.594 269.941 36.8881L270.244 37.906C270.581 37.5893 270.929 37.2952 271.288 37.0238C271.647 36.7523 272.028 36.5261 272.432 36.3452C272.848 36.1529 273.291 36.0058 273.762 35.904C274.245 35.7909 274.767 35.7344 275.328 35.7344C276.282 35.7344 277.123 35.904 277.853 36.2434C278.593 36.5714 279.216 37.0351 279.721 37.6346C280.226 38.2227 280.608 38.9296 280.866 39.7553C281.124 40.5697 281.253 41.4576 281.253 42.419V53.5995H276.035V42.419C276.035 41.5594 275.838 40.892 275.446 40.417C275.053 39.9306 274.475 39.6874 273.712 39.6874C273.139 39.6874 272.601 39.8119 272.096 40.0607C271.591 40.3095 271.108 40.6432 270.648 41.0617V53.5995H265.43Z" fill="white"/>
<path d="M262.365 36.2422V53.5969H256.75V36.2422H262.365Z" fill="white"/>
<path d="M261.341 59.2136C261.341 60.3412 260.427 61.2553 259.3 61.2553C258.172 61.2553 257.258 60.3412 257.258 59.2136C257.258 58.086 258.172 57.1719 259.3 57.1719C260.427 57.1719 261.341 58.086 261.341 59.2136Z" fill="white"/>
<path d="M262.365 30.8855C262.365 32.436 261.108 33.6929 259.557 33.6929C258.007 33.6929 256.75 32.436 256.75 30.8855C256.75 29.335 258.007 28.0781 259.557 28.0781C261.108 28.0781 262.365 29.335 262.365 30.8855Z" fill="#FAFAFA"/>
<path d="M262.362 30.883C262.362 29.3325 261.105 28.0756 259.555 28.0756C258.004 28.0756 256.747 29.3325 256.747 30.883C256.747 32.4335 258.004 33.6904 259.555 33.6904C261.105 33.6904 262.362 32.4335 262.362 30.883ZM264.914 30.883C264.914 33.843 262.515 36.2425 259.555 36.2425C256.595 36.2425 254.195 33.843 254.195 30.883C254.195 27.923 256.595 25.5234 259.555 25.5234C262.515 25.5234 264.914 27.923 264.914 30.883Z" fill="#6A30E2"/>
<path d="M270.271 59.2136C270.271 60.3412 269.357 61.2553 268.229 61.2553C267.102 61.2553 266.188 60.3412 266.188 59.2136C266.188 58.086 267.102 57.1719 268.229 57.1719C269.357 57.1719 270.271 58.086 270.271 59.2136Z" fill="white"/>
<path d="M280.74 59.2136C280.74 60.3412 279.826 61.2553 278.698 61.2553C277.57 61.2553 276.656 60.3412 276.656 59.2136C276.656 58.086 277.57 57.1719 278.698 57.1719C279.826 57.1719 280.74 58.086 280.74 59.2136Z" fill="white"/>
<path d="M139.675 77.1555L140.742 77.2874C140.574 77.9103 140.262 78.3937 139.807 78.7377C139.353 79.0816 138.772 79.2536 138.065 79.2536C137.174 79.2536 136.467 78.9803 135.944 78.4339C135.424 77.8835 135.164 77.1135 135.164 76.1237C135.164 75.0995 135.428 74.3046 135.955 73.739C136.483 73.1734 137.167 72.8906 138.007 72.8906C138.821 72.8906 139.486 73.1677 140.002 73.7218C140.518 74.276 140.776 75.0556 140.776 76.0606C140.776 76.1218 140.774 76.2135 140.77 76.3358H136.23C136.269 77.0046 136.458 77.5167 136.798 77.8721C137.138 78.2275 137.562 78.4052 138.07 78.4052C138.449 78.4052 138.772 78.3058 139.039 78.1071C139.307 77.9084 139.519 77.5912 139.675 77.1555ZM136.288 75.4874H139.687C139.641 74.9753 139.511 74.5912 139.297 74.3352C138.968 73.9377 138.542 73.739 138.019 73.739C137.545 73.739 137.146 73.8976 136.821 74.2148C136.5 74.532 136.322 74.9562 136.288 75.4874Z" fill="black"/>
<path d="M133.725 76.8861L134.74 77.018C134.629 77.7173 134.344 78.2657 133.886 78.6632C133.431 79.0568 132.871 79.2536 132.206 79.2536C131.373 79.2536 130.702 78.9823 130.194 78.4396C129.69 77.8931 129.438 77.1116 129.438 76.095C129.438 75.4377 129.546 74.8626 129.764 74.3696C129.982 73.8766 130.313 73.5078 130.756 73.2632C131.203 73.0148 131.688 72.8906 132.212 72.8906C132.873 72.8906 133.414 73.0588 133.834 73.3951C134.255 73.7276 134.524 74.2014 134.643 74.8167L133.639 74.9715C133.544 74.5626 133.374 74.2549 133.129 74.0486C132.888 73.8422 132.596 73.739 132.252 73.739C131.732 73.739 131.31 73.9263 130.985 74.3008C130.66 74.6715 130.498 75.26 130.498 76.0664C130.498 76.8842 130.655 77.4785 130.968 77.8492C131.281 78.2198 131.69 78.4052 132.195 78.4052C132.6 78.4052 132.938 78.281 133.209 78.0326C133.481 77.7842 133.653 77.402 133.725 76.8861Z" fill="black"/>
<path d="M127.258 71.8975V70.7109H128.29V71.8975H127.258ZM127.258 79.1146V73.0268H128.29V79.1146H127.258Z" fill="black"/>
<path d="M123.191 79.1191L120.875 73.0312H121.964L123.271 76.6771C123.413 77.0707 123.542 77.4796 123.661 77.9038C123.753 77.5828 123.881 77.1968 124.045 76.7458L125.398 73.0312H126.458L124.154 79.1191H123.191Z" fill="black"/>
<path d="M117.695 79.116V73.0282H118.624V73.9511C118.861 73.5193 119.079 73.2346 119.277 73.097C119.48 72.9594 119.702 72.8906 119.942 72.8906C120.29 72.8906 120.644 73.0015 121.003 73.2231L120.647 74.1804C120.395 74.0314 120.143 73.9569 119.891 73.9569C119.665 73.9569 119.463 74.0256 119.283 74.1632C119.104 74.297 118.976 74.4842 118.899 74.725C118.784 75.0919 118.727 75.4931 118.727 75.9288V79.116H117.695Z" fill="black"/>
<path d="M115.457 77.1555L116.523 77.2874C116.355 77.9103 116.043 78.3937 115.589 78.7377C115.134 79.0816 114.553 79.2536 113.846 79.2536C112.955 79.2536 112.248 78.9803 111.725 78.4339C111.205 77.8835 110.945 77.1135 110.945 76.1237C110.945 75.0995 111.209 74.3046 111.736 73.739C112.264 73.1734 112.948 72.8906 113.789 72.8906C114.603 72.8906 115.268 73.1677 115.783 73.7218C116.299 74.276 116.557 75.0556 116.557 76.0606C116.557 76.1218 116.555 76.2135 116.552 76.3358H112.012C112.05 77.0046 112.239 77.5167 112.579 77.8721C112.919 78.2275 113.343 78.4052 113.852 78.4052C114.23 78.4052 114.553 78.3058 114.82 78.1071C115.088 77.9084 115.3 77.5912 115.457 77.1555ZM112.069 75.4874H115.468C115.422 74.9753 115.292 74.5912 115.078 74.3352C114.75 73.9377 114.324 73.739 113.8 73.739C113.326 73.739 112.927 73.8976 112.602 74.2148C112.281 74.532 112.103 74.9562 112.069 75.4874Z" fill="black"/>
<path d="M103.336 76.4174L104.385 76.3256C104.435 76.746 104.549 77.0919 104.729 77.3632C104.912 77.6307 105.195 77.8486 105.577 78.0167C105.959 78.181 106.389 78.2632 106.867 78.2632C107.291 78.2632 107.666 78.2001 107.991 78.074C108.315 77.9479 108.556 77.7759 108.713 77.5581C108.873 77.3365 108.954 77.0957 108.954 76.8358C108.954 76.5721 108.877 76.3428 108.724 76.1479C108.572 75.9492 108.319 75.783 107.968 75.6492C107.742 75.5613 107.244 75.4257 106.472 75.2422C105.7 75.055 105.159 74.8792 104.849 74.7148C104.448 74.5047 104.148 74.2448 103.949 73.9352C103.754 73.6219 103.657 73.2722 103.657 72.8862C103.657 72.462 103.777 72.0665 104.018 71.6996C104.259 71.3289 104.61 71.048 105.073 70.8569C105.535 70.6659 106.049 70.5703 106.615 70.5703C107.238 70.5703 107.786 70.6716 108.26 70.8741C108.738 71.0729 109.105 71.3671 109.361 71.7569C109.617 72.1467 109.754 72.5881 109.773 73.0811L108.707 73.1614C108.65 72.6302 108.455 72.2289 108.122 71.9576C107.794 71.6862 107.307 71.5506 106.661 71.5506C105.988 71.5506 105.497 71.6748 105.188 71.9232C104.882 72.1677 104.729 72.4639 104.729 72.8117C104.729 73.1136 104.838 73.362 105.056 73.5569C105.27 73.7518 105.828 73.9524 106.73 74.1588C107.635 74.3613 108.256 74.539 108.593 74.6919C109.082 74.9174 109.443 75.204 109.676 75.5518C109.909 75.8957 110.026 76.2932 110.026 76.7441C110.026 77.1912 109.898 77.6135 109.642 78.011C109.386 78.4046 109.017 78.7122 108.535 78.9339C108.058 79.1517 107.519 79.2606 106.919 79.2606C106.158 79.2606 105.52 79.1498 105.004 78.9282C104.492 78.7065 104.089 78.374 103.795 77.9307C103.504 77.4836 103.351 76.9791 103.336 76.4174Z" fill="black"/>
<path d="M99.5313 78.1979L99.6803 79.1093C99.3899 79.1705 99.13 79.201 98.9007 79.201C98.5262 79.201 98.2358 79.1418 98.0294 79.0233C97.823 78.9049 97.6778 78.7501 97.5937 78.559C97.5097 78.3641 97.4676 77.9571 97.4676 77.338V73.8355H96.7109V73.033H97.4676V71.5253L98.4937 70.9062V73.033H99.5313V73.8355H98.4937V77.3953C98.4937 77.6896 98.5109 77.8788 98.5453 77.9628C98.5835 78.0469 98.6428 78.1138 98.723 78.1635C98.8071 78.2132 98.9256 78.238 99.0784 78.238C99.1931 78.238 99.344 78.2246 99.5313 78.1979Z" fill="black"/>
<path d="M91.1172 77.2988L92.1376 77.1383C92.1949 77.5472 92.3535 77.8606 92.6133 78.0784C92.877 78.2963 93.2439 78.4052 93.714 78.4052C94.1878 78.4052 94.5394 78.3097 94.7687 78.1186C94.998 77.9237 95.1127 77.6963 95.1127 77.4364C95.1127 77.2033 95.0114 77.0199 94.8089 76.8861C94.6675 76.7944 94.3159 76.6778 93.7541 76.5364C92.9974 76.3454 92.4719 76.181 92.1777 76.0434C91.8872 75.902 91.6656 75.7091 91.5127 75.4645C91.3637 75.2161 91.2892 74.9428 91.2892 74.6447C91.2892 74.3734 91.3503 74.1231 91.4726 73.8938C91.5987 73.6607 91.7688 73.4677 91.9828 73.3148C92.1433 73.1964 92.3611 73.097 92.6363 73.0167C92.9153 72.9327 93.2133 72.8906 93.5305 72.8906C94.0082 72.8906 94.4267 72.9594 94.7859 73.097C95.149 73.2346 95.4165 73.4218 95.5885 73.6588C95.7604 73.8919 95.8789 74.2053 95.9439 74.5989L94.935 74.7365C94.8891 74.4231 94.7554 74.1785 94.5337 74.0027C94.3159 73.8269 94.0063 73.739 93.605 73.739C93.1312 73.739 92.793 73.8174 92.5904 73.974C92.3879 74.1307 92.2866 74.3142 92.2866 74.5244C92.2866 74.6581 92.3286 74.7785 92.4127 74.8855C92.4968 74.9963 92.6286 75.088 92.8082 75.1607C92.9114 75.1989 93.2152 75.2868 93.7197 75.4243C94.4496 75.6192 94.9579 75.7798 95.2445 75.9059C95.535 76.0282 95.7623 76.2078 95.9267 76.4447C96.091 76.6817 96.1732 76.9759 96.1732 77.3275C96.1732 77.6714 96.0719 77.9963 95.8693 78.302C95.6706 78.6039 95.3821 78.8389 95.0038 79.0071C94.6254 79.1714 94.1974 79.2536 93.7197 79.2536C92.9286 79.2536 92.3248 79.0893 91.9083 78.7606C91.4955 78.4319 91.2318 77.9447 91.1172 77.2988Z" fill="black"/>
<path d="M89.0391 71.8975V70.7109H90.0709V71.8975H89.0391ZM89.0391 79.1146V73.0268H90.0709V79.1146H89.0391Z" fill="black"/>
<path d="M82.6094 79.116V73.0282H83.538V73.8938C83.9852 73.225 84.631 72.8906 85.4756 72.8906C85.8424 72.8906 86.1788 72.9575 86.4845 73.0913C86.794 73.2212 87.0252 73.3932 87.1781 73.6072C87.331 73.8212 87.438 74.0753 87.4991 74.3696C87.5373 74.5607 87.5564 74.8951 87.5564 75.3728V79.116H86.5246V75.4129C86.5246 74.9925 86.4845 74.6791 86.4042 74.4728C86.324 74.2626 86.1807 74.0963 85.9743 73.974C85.7718 73.8479 85.5329 73.7849 85.2577 73.7849C84.8183 73.7849 84.438 73.9244 84.117 74.2033C83.7998 74.4823 83.6412 75.0116 83.6412 75.7912V79.116H82.6094Z" fill="black"/>
<path d="M75.8125 76.0721C75.8125 74.9447 76.1259 74.1097 76.7526 73.567C77.2762 73.1161 77.9144 72.8906 78.6672 72.8906C79.5042 72.8906 80.1882 73.1658 80.7194 73.7161C81.2506 74.2626 81.5162 75.0193 81.5162 75.9861C81.5162 76.7696 81.3978 77.3867 81.1608 77.8377C80.9277 78.2848 80.5857 78.6326 80.1347 78.881C79.6876 79.1294 79.1984 79.2536 78.6672 79.2536C77.815 79.2536 77.1252 78.9803 76.5978 78.4339C76.0743 77.8874 75.8125 77.1001 75.8125 76.0721ZM76.873 76.0721C76.873 76.8517 77.0431 77.4364 77.3832 77.8262C77.7233 78.2122 78.1513 78.4052 78.6672 78.4052C79.1793 78.4052 79.6054 78.2103 79.9456 77.8205C80.2857 77.4307 80.4557 76.8364 80.4557 76.0377C80.4557 75.2849 80.2838 74.7154 79.9398 74.3295C79.5997 73.9397 79.1755 73.7448 78.6672 73.7448C78.1513 73.7448 77.7233 73.9377 77.3832 74.3237C77.0431 74.7097 76.873 75.2925 76.873 76.0721Z" fill="black"/>
<path d="M73.7031 71.8975V70.7109H74.735V71.8975H73.7031ZM73.7031 79.1146V73.0268H74.735V79.1146H73.7031Z" fill="black"/>
<path d="M72.8047 78.1979L72.9538 79.1093C72.6633 79.1705 72.4034 79.201 72.1742 79.201C71.7996 79.201 71.5092 79.1418 71.3028 79.0233C71.0965 78.9049 70.9512 78.7501 70.8672 78.559C70.7831 78.3641 70.7411 77.9571 70.7411 77.338V73.8355H69.9844V73.033H70.7411V71.5253L71.7672 70.9062V73.033H72.8047V73.8355H71.7672V77.3953C71.7672 77.6896 71.7843 77.8788 71.8187 77.9628C71.857 78.0469 71.9162 78.1138 71.9964 78.1635C72.0805 78.2132 72.199 78.238 72.3519 78.238C72.4665 78.238 72.6175 78.2246 72.8047 78.1979Z" fill="black"/>
<path d="M64.1328 81.4491V73.0282H65.0729V73.8193C65.2946 73.5097 65.5449 73.2785 65.8239 73.1257C66.1028 72.969 66.4411 72.8906 66.8385 72.8906C67.3582 72.8906 67.8168 73.0244 68.2143 73.2919C68.6117 73.5594 68.9117 73.9377 69.1143 74.4269C69.3168 74.9123 69.4181 75.4454 69.4181 76.0262C69.4181 76.6492 69.3053 77.2109 69.0799 77.7116C68.8582 78.2084 68.5334 78.5905 68.1054 78.8581C67.6812 79.1217 67.234 79.2536 66.764 79.2536C66.42 79.2536 66.1105 79.181 65.8353 79.0358C65.564 78.8905 65.3404 78.7071 65.1646 78.4854V81.4491H64.1328ZM65.0672 76.1065C65.0672 76.8899 65.2258 77.4689 65.543 77.8434C65.8602 78.2179 66.2442 78.4052 66.6952 78.4052C67.1538 78.4052 67.5455 78.2122 67.8703 77.8262C68.199 77.4364 68.3633 76.8345 68.3633 76.0205C68.3633 75.2447 68.2028 74.6638 67.8818 74.2779C67.5646 73.8919 67.1844 73.6989 66.7411 73.6989C66.3016 73.6989 65.9118 73.9053 65.5716 74.318C65.2353 74.7269 65.0672 75.3231 65.0672 76.1065Z" fill="black"/>
<path d="M61.8786 77.1555L62.9448 77.2874C62.7767 77.9103 62.4652 78.3937 62.0104 78.7377C61.5557 79.0816 60.9748 79.2536 60.2678 79.2536C59.3773 79.2536 58.6704 78.9803 58.1468 78.4339C57.6271 77.8835 57.3672 77.1135 57.3672 76.1237C57.3672 75.0995 57.6309 74.3046 58.1583 73.739C58.6856 73.1734 59.3697 72.8906 60.2105 72.8906C61.0245 72.8906 61.6894 73.1677 62.2053 73.7218C62.7213 74.276 62.9792 75.0556 62.9792 76.0606C62.9792 76.1218 62.9773 76.2135 62.9735 76.3358H58.4334C58.4716 77.0046 58.6608 77.5167 59.0009 77.8721C59.341 78.2275 59.7652 78.4052 60.2735 78.4052C60.6519 78.4052 60.9748 78.3058 61.2423 78.1071C61.5098 77.9084 61.7219 77.5912 61.8786 77.1555ZM58.4907 75.4874H61.8901C61.8442 74.9753 61.7143 74.5912 61.5002 74.3352C61.1716 73.9377 60.7455 73.739 60.2219 73.739C59.748 73.739 59.3487 73.8976 59.0239 74.2148C58.7028 74.532 58.5251 74.9562 58.4907 75.4874Z" fill="black"/>
<path d="M55.9363 76.8861L56.9509 77.018C56.8401 77.7173 56.5554 78.2657 56.0968 78.6632C55.642 79.0568 55.0821 79.2536 54.4172 79.2536C53.5841 79.2536 52.9134 78.9823 52.4051 78.4396C51.9007 77.8931 51.6484 77.1116 51.6484 76.095C51.6484 75.4377 51.7574 74.8626 51.9752 74.3696C52.193 73.8766 52.5236 73.5078 52.9669 73.2632C53.414 73.0148 53.8994 72.8906 54.4229 72.8906C55.0841 72.8906 55.6248 73.0588 56.0452 73.3951C56.4656 73.7276 56.735 74.2014 56.8535 74.8167L55.8503 74.9715C55.7547 74.5626 55.5847 74.2549 55.3401 74.0486C55.0993 73.8422 54.807 73.739 54.463 73.739C53.9433 73.739 53.521 73.9263 53.1962 74.3008C52.8713 74.6715 52.7089 75.26 52.7089 76.0664C52.7089 76.8842 52.8656 77.4785 53.179 77.8492C53.4924 78.2198 53.9013 78.4052 54.4057 78.4052C54.8108 78.4052 55.149 78.281 55.4204 78.0326C55.6917 77.7842 55.8637 77.402 55.9363 76.8861Z" fill="black"/>
<path d="M49.7145 77.1555L50.7808 77.2874C50.6126 77.9103 50.3011 78.3937 49.8464 78.7377C49.3916 79.0816 48.8107 79.2536 48.1037 79.2536C47.2133 79.2536 46.5063 78.9803 45.9827 78.4339C45.463 77.8835 45.2031 77.1135 45.2031 76.1237C45.2031 75.0995 45.4668 74.3046 45.9942 73.739C46.5216 73.1734 47.2056 72.8906 48.0464 72.8906C48.8604 72.8906 49.5254 73.1677 50.0413 73.7218C50.5572 74.276 50.8151 75.0556 50.8151 76.0606C50.8151 76.1218 50.8132 76.2135 50.8094 76.3358H46.2694C46.3076 77.0046 46.4967 77.5167 46.8369 77.8721C47.177 78.2275 47.6012 78.4052 48.1095 78.4052C48.4878 78.4052 48.8107 78.3058 49.0782 78.1071C49.3457 77.9084 49.5578 77.5912 49.7145 77.1555ZM46.3267 75.4874H49.726C49.6801 74.9753 49.5502 74.5912 49.3362 74.3352C49.0075 73.9377 48.5814 73.739 48.0579 73.739C47.584 73.739 47.1846 73.8976 46.8598 74.2148C46.5388 74.532 46.3611 74.9562 46.3267 75.4874Z" fill="black"/>
<path d="M37.3281 79.1146V70.7109H41.0542C41.8032 70.7109 42.3726 70.7874 42.7624 70.9402C43.1522 71.0893 43.4637 71.3549 43.6968 71.737C43.9299 72.1192 44.0465 72.5415 44.0465 73.0039C44.0465 73.6001 43.8535 74.1026 43.4675 74.5115C43.0815 74.9204 42.4854 75.1803 41.679 75.2911C41.9733 75.4325 42.1968 75.572 42.3497 75.7096C42.6745 76.0077 42.9822 76.3803 43.2726 76.8274L44.7344 79.1146H43.3357L42.2236 77.3663C41.8988 76.8618 41.6312 76.4758 41.4211 76.2083C41.2109 75.9408 41.0217 75.7535 40.8536 75.6465C40.6892 75.5395 40.5211 75.465 40.3491 75.423C40.223 75.3962 40.0166 75.3828 39.73 75.3828H38.4402V79.1146H37.3281ZM38.4402 74.4198H40.8306C41.3389 74.4198 41.7363 74.3682 42.023 74.265C42.3096 74.158 42.5274 73.9899 42.6765 73.7606C42.8255 73.5275 42.9 73.2752 42.9 73.0039C42.9 72.6065 42.7548 72.2797 42.4644 72.0237C42.1777 71.7676 41.723 71.6396 41.1 71.6396H38.4402V74.4198Z" fill="black"/>
<path d="M31.1953 79.1146V70.7109H32.3074V79.1146H31.1953Z" fill="black"/>
<path d="M22.375 79.1146L25.6023 70.7109H26.8004L30.2399 79.1146H28.973L27.9928 76.5695H24.4788L23.5559 79.1146H22.375ZM24.7998 75.6637H27.6488L26.7718 73.3364C26.5042 72.6294 26.3055 72.0485 26.1756 71.5937C26.0686 72.1326 25.9176 72.6676 25.7227 73.1988L24.7998 75.6637Z" fill="black"/>
<path d="M18.4177 77.1555L19.4839 77.2874C19.3157 77.9103 19.0043 78.3937 18.5495 78.7377C18.0947 79.0816 17.5138 79.2536 16.8068 79.2536C15.9164 79.2536 15.2094 78.9803 14.6859 78.4339C14.1661 77.8835 13.9062 77.1135 13.9062 76.1237C13.9062 75.0995 14.1699 74.3046 14.6973 73.739C15.2247 73.1734 15.9088 72.8906 16.7495 72.8906C17.5635 72.8906 18.2285 73.1677 18.7444 73.7218C19.2603 74.276 19.5183 75.0556 19.5183 76.0606C19.5183 76.1218 19.5164 76.2135 19.5125 76.3358H14.9725C15.0107 77.0046 15.1999 77.5167 15.54 77.8721C15.8801 78.2275 16.3043 78.4052 16.8126 78.4052C17.1909 78.4052 17.5138 78.3058 17.7814 78.1071C18.0489 77.9084 18.261 77.5912 18.4177 77.1555ZM15.0298 75.4874H18.4291C18.3833 74.9753 18.2533 74.5912 18.0393 74.3352C17.7107 73.9377 17.2845 73.739 16.761 73.739C16.2871 73.739 15.8878 73.8976 15.5629 74.2148C15.2419 74.532 15.0642 74.9562 15.0298 75.4874Z" fill="black"/>
<path d="M7.82812 79.1146V70.7109H8.85996V73.7262C9.34148 73.1682 9.94911 72.8893 10.6829 72.8893C11.1338 72.8893 11.5255 72.9791 11.858 73.1587C12.1905 73.3345 12.4274 73.579 12.5688 73.8924C12.714 74.2058 12.7867 74.6606 12.7867 75.2567V79.1146H11.7548V75.2567C11.7548 74.7408 11.6421 74.3663 11.4166 74.1332C11.195 73.8962 10.8797 73.7778 10.4708 73.7778C10.165 73.7778 9.8765 73.858 9.60517 74.0185C9.33766 74.1752 9.14658 74.3892 9.03193 74.6606C8.91728 74.9319 8.85996 75.3064 8.85996 75.7841V79.1146H7.82812Z" fill="black"/>
<path d="M3.04219 79.1146V71.7026H0.273438V70.7109H6.93449V71.7026H4.15427V79.1146H3.04219Z" fill="black"/>
</svg>
