<svg width="27" height="26" viewBox="0 0 27 26" fill="none" xmlns="http://www.w3.org/2000/svg">
<path d="M0.727993 13.0429C-0.277527 13.5704 -0.235812 14.343 0.818376 14.7602L3.94183 15.996C4.99689 16.4149 6.59338 16.1864 7.48766 15.4885L21.0513 4.79191C21.943 4.09057 22.0386 4.19399 21.2642 5.02309L10.5416 16.5001C9.76463 17.3266 9.99407 18.3417 11.0526 18.751L11.4185 18.8935C12.477 19.3029 14.2021 19.9903 15.2537 20.4179L18.7178 21.8284C19.7703 22.256 20.8949 21.7519 21.1938 20.6569L26.4735 1.25043C26.7716 0.155398 26.1928 -0.309557 25.1872 0.217103L0.727993 13.0429Z" fill="#6524EB"/>
<path d="M9.30117 25.7496C9.23947 25.9347 11.4374 22.567 11.4374 22.567C12.0587 21.618 11.7059 20.4856 10.6561 20.0563L8.25915 19.0751C7.20931 18.6458 6.70611 19.1498 7.14065 20.1988C7.14065 20.1988 9.36461 25.5592 9.30117 25.7496Z" fill="#6524EB"/>
</svg>
