<svg width="109" height="34" viewBox="0 0 109 34" fill="none" xmlns="http://www.w3.org/2000/svg">
<path d="M0.616477 5.14062V3.81818H8.49645V5.14062H5.3196V14H3.78835V5.14062H0.616477ZM12.2276 14.1541C11.5117 14.1541 10.887 13.9901 10.3533 13.6619C9.81972 13.3338 9.40542 12.8748 9.11044 12.2848C8.81546 11.6948 8.66797 11.0054 8.66797 10.2166C8.66797 9.42448 8.81546 8.73177 9.11044 8.13849C9.40542 7.54522 9.81972 7.08452 10.3533 6.75639C10.887 6.42827 11.5117 6.2642 12.2276 6.2642C12.9435 6.2642 13.5683 6.42827 14.1019 6.75639C14.6355 7.08452 15.0498 7.54522 15.3448 8.13849C15.6398 8.73177 15.7873 9.42448 15.7873 10.2166C15.7873 11.0054 15.6398 11.6948 15.3448 12.2848C15.0498 12.8748 14.6355 13.3338 14.1019 13.6619C13.5683 13.9901 12.9435 14.1541 12.2276 14.1541ZM12.2326 12.9062C12.6966 12.9062 13.0811 12.7836 13.386 12.5384C13.6909 12.2931 13.9163 11.9666 14.0621 11.5589C14.2113 11.1513 14.2859 10.7022 14.2859 10.2116C14.2859 9.72443 14.2113 9.27699 14.0621 8.86932C13.9163 8.45833 13.6909 8.12855 13.386 7.87997C13.0811 7.63139 12.6966 7.5071 12.2326 7.5071C11.7653 7.5071 11.3775 7.63139 11.0692 7.87997C10.7643 8.12855 10.5373 8.45833 10.3881 8.86932C10.2423 9.27699 10.1694 9.72443 10.1694 10.2116C10.1694 10.7022 10.2423 11.1513 10.3881 11.5589C10.5373 11.9666 10.7643 12.2931 11.0692 12.5384C11.3775 12.7836 11.7653 12.9062 12.2326 12.9062ZM21.0112 6.36364V7.55682H16.84V6.36364H21.0112ZM17.9586 4.53409H19.4451V11.7578C19.4451 12.0462 19.4882 12.2633 19.5744 12.4091C19.6606 12.5516 19.7716 12.6494 19.9075 12.7024C20.0467 12.7521 20.1975 12.777 20.3599 12.777C20.4792 12.777 20.5836 12.7687 20.6731 12.7521C20.7626 12.7356 20.8322 12.7223 20.8819 12.7124L21.1504 13.9403C21.0642 13.9735 20.9416 14.0066 20.7825 14.0398C20.6234 14.0762 20.4245 14.0961 20.1859 14.0994C19.7948 14.1061 19.4302 14.0365 19.0922 13.8906C18.7541 13.7448 18.4806 13.5194 18.2718 13.2145C18.063 12.9096 17.9586 12.5268 17.9586 12.0661V4.53409ZM24.8778 14.169C24.3939 14.169 23.9564 14.0795 23.5653 13.9006C23.1742 13.7183 22.8643 13.4548 22.6357 13.1101C22.4103 12.7654 22.2976 12.3428 22.2976 11.8423C22.2976 11.4115 22.3804 11.0568 22.5462 10.7784C22.7119 10.5 22.9356 10.2796 23.2173 10.1172C23.4991 9.95478 23.8139 9.83215 24.1619 9.74929C24.5099 9.66643 24.8646 9.60346 25.2259 9.56037C25.6832 9.50734 26.0545 9.46425 26.3395 9.43111C26.6245 9.39465 26.8317 9.33665 26.9609 9.2571C27.0902 9.17756 27.1548 9.0483 27.1548 8.86932V8.83452C27.1548 8.40033 27.0322 8.06392 26.7869 7.82528C26.545 7.58665 26.1837 7.46733 25.7031 7.46733C25.2027 7.46733 24.8082 7.57836 24.5199 7.80043C24.2348 8.01918 24.0376 8.26278 23.9283 8.53125L22.5312 8.21307C22.697 7.74905 22.9389 7.37453 23.2571 7.08949C23.5786 6.80114 23.9482 6.59233 24.3658 6.46307C24.7834 6.33049 25.2225 6.2642 25.6832 6.2642C25.9882 6.2642 26.3113 6.30066 26.6527 6.37358C26.9974 6.44318 27.3189 6.57244 27.6172 6.76136C27.9188 6.95028 28.1657 7.22041 28.358 7.57173C28.5502 7.91974 28.6463 8.37216 28.6463 8.92898V14H27.1946V12.956H27.1349C27.0388 13.1482 26.8946 13.3371 26.7024 13.5227C26.5102 13.7083 26.2633 13.8625 25.9616 13.9851C25.66 14.1077 25.2988 14.169 24.8778 14.169ZM25.201 12.9759C25.612 12.9759 25.9633 12.8946 26.255 12.7322C26.55 12.5698 26.7737 12.3577 26.9261 12.0959C27.0819 11.8307 27.1598 11.5473 27.1598 11.2457V10.2614C27.1068 10.3144 27.004 10.3641 26.8516 10.4105C26.7024 10.4536 26.5317 10.4917 26.3395 10.5249C26.1473 10.5547 25.96 10.5829 25.7777 10.6094C25.5954 10.6326 25.4429 10.6525 25.3203 10.669C25.032 10.7055 24.7685 10.7668 24.5298 10.853C24.2945 10.9392 24.1056 11.0634 23.9631 11.2259C23.8239 11.3849 23.7543 11.5971 23.7543 11.8622C23.7543 12.2301 23.8902 12.5085 24.1619 12.6974C24.4337 12.883 24.7801 12.9759 25.201 12.9759ZM32.1127 3.81818V14H30.6262V3.81818H32.1127ZM46.3936 7.12926H44.8425C44.7828 6.79782 44.6718 6.50615 44.5094 6.25426C44.347 6.00237 44.1481 5.78859 43.9128 5.61293C43.6775 5.43726 43.414 5.30469 43.1223 5.2152C42.834 5.12571 42.5274 5.08097 42.2026 5.08097C41.6159 5.08097 41.0906 5.22846 40.6266 5.52344C40.1659 5.81842 39.8013 6.25095 39.5328 6.82102C39.2677 7.3911 39.1351 8.08712 39.1351 8.90909C39.1351 9.73769 39.2677 10.437 39.5328 11.0071C39.8013 11.5772 40.1676 12.008 40.6316 12.2997C41.0956 12.5914 41.6176 12.7372 42.1976 12.7372C42.5191 12.7372 42.824 12.6941 43.1124 12.608C43.4041 12.5185 43.6676 12.3875 43.9029 12.2152C44.1382 12.0429 44.3371 11.8324 44.4995 11.5838C44.6652 11.3319 44.7795 11.0436 44.8425 10.7188L46.3936 10.7237C46.3108 11.2242 46.15 11.6849 45.9114 12.1058C45.6761 12.5234 45.3728 12.8847 45.0016 13.1896C44.6337 13.4912 44.2128 13.7249 43.7388 13.8906C43.2649 14.0563 42.7478 14.1392 42.1877 14.1392C41.306 14.1392 40.5205 13.9304 39.8311 13.5128C39.1417 13.0919 38.5982 12.4903 38.2005 11.7081C37.806 10.9259 37.6088 9.9929 37.6088 8.90909C37.6088 7.82197 37.8077 6.88897 38.2054 6.11008C38.6032 5.32789 39.1467 4.72798 39.8361 4.31037C40.5255 3.88944 41.3094 3.67898 42.1877 3.67898C42.7279 3.67898 43.2317 3.75687 43.699 3.91264C44.1697 4.0651 44.5923 4.29048 44.9668 4.58878C45.3413 4.88376 45.6512 5.24503 45.8965 5.67258C46.1417 6.09683 46.3075 6.58239 46.3936 7.12926ZM50.3349 14.169C49.851 14.169 49.4135 14.0795 49.0224 13.9006C48.6313 13.7183 48.3214 13.4548 48.0927 13.1101C47.8673 12.7654 47.7546 12.3428 47.7546 11.8423C47.7546 11.4115 47.8375 11.0568 48.0032 10.7784C48.1689 10.5 48.3926 10.2796 48.6744 10.1172C48.9561 9.95478 49.271 9.83215 49.619 9.74929C49.967 9.66643 50.3216 9.60346 50.6829 9.56037C51.1403 9.50734 51.5115 9.46425 51.7965 9.43111C52.0816 9.39465 52.2887 9.33665 52.418 9.2571C52.5472 9.17756 52.6119 9.0483 52.6119 8.86932V8.83452C52.6119 8.40033 52.4892 8.06392 52.244 7.82528C52.002 7.58665 51.6407 7.46733 51.1602 7.46733C50.6597 7.46733 50.2653 7.57836 49.9769 7.80043C49.6919 8.01918 49.4947 8.26278 49.3853 8.53125L47.9883 8.21307C48.154 7.74905 48.396 7.37453 48.7141 7.08949C49.0356 6.80114 49.4052 6.59233 49.8228 6.46307C50.2404 6.33049 50.6796 6.2642 51.1403 6.2642C51.4452 6.2642 51.7683 6.30066 52.1097 6.37358C52.4544 6.44318 52.7759 6.57244 53.0742 6.76136C53.3758 6.95028 53.6228 7.22041 53.815 7.57173C54.0072 7.91974 54.1033 8.37216 54.1033 8.92898V14H52.6516V12.956H52.592C52.4959 13.1482 52.3517 13.3371 52.1594 13.5227C51.9672 13.7083 51.7203 13.8625 51.4187 13.9851C51.1171 14.1077 50.7558 14.169 50.3349 14.169ZM50.658 12.9759C51.069 12.9759 51.4203 12.8946 51.712 12.7322C52.007 12.5698 52.2307 12.3577 52.3832 12.0959C52.5389 11.8307 52.6168 11.5473 52.6168 11.2457V10.2614C52.5638 10.3144 52.4611 10.3641 52.3086 10.4105C52.1594 10.4536 51.9888 10.4917 51.7965 10.5249C51.6043 10.5547 51.417 10.5829 51.2347 10.6094C51.0524 10.6326 50.9 10.6525 50.7773 10.669C50.489 10.7055 50.2255 10.7668 49.9869 10.853C49.7515 10.9392 49.5626 11.0634 49.4201 11.2259C49.2809 11.3849 49.2113 11.5971 49.2113 11.8622C49.2113 12.2301 49.3472 12.5085 49.619 12.6974C49.8907 12.883 50.2371 12.9759 50.658 12.9759ZM57.5698 3.81818V14H56.0833V3.81818H57.5698ZM61.0561 3.81818V14H59.5696V3.81818H61.0561ZM68.7782 8.22798L67.4309 8.46662C67.3746 8.29427 67.2851 8.13021 67.1625 7.97443C67.0431 7.81865 66.8807 7.69105 66.6752 7.59162C66.4698 7.49219 66.2129 7.44247 65.9047 7.44247C65.4837 7.44247 65.1324 7.53693 64.8507 7.72585C64.569 7.91146 64.4281 8.15175 64.4281 8.44673C64.4281 8.70194 64.5225 8.90743 64.7115 9.06321C64.9004 9.21899 65.2053 9.34659 65.6262 9.44602L66.8393 9.72443C67.542 9.88684 68.0656 10.1371 68.4103 10.4751C68.755 10.8132 68.9274 11.2524 68.9274 11.7926C68.9274 12.25 68.7948 12.6577 68.5297 13.0156C68.2678 13.3703 67.9016 13.6487 67.4309 13.8509C66.9636 14.053 66.4217 14.1541 65.8052 14.1541C64.9501 14.1541 64.2524 13.9718 63.7122 13.6072C63.1719 13.2393 62.8405 12.7173 62.7179 12.0412L64.1547 11.8224C64.2441 12.197 64.4281 12.4804 64.7065 12.6726C64.9849 12.8615 65.3478 12.956 65.7953 12.956C66.2825 12.956 66.6719 12.8549 66.9636 12.6527C67.2553 12.4472 67.4011 12.197 67.4011 11.902C67.4011 11.6634 67.3116 11.4628 67.1326 11.3004C66.957 11.138 66.6868 11.0154 66.3223 10.9325L65.0297 10.6491C64.3171 10.4867 63.7901 10.2282 63.4487 9.87358C63.1106 9.51894 62.9416 9.06984 62.9416 8.52628C62.9416 8.07552 63.0675 7.68111 63.3194 7.34304C63.5713 7.00497 63.9193 6.74148 64.3635 6.55256C64.8076 6.36032 65.3163 6.2642 65.8897 6.2642C66.715 6.2642 67.3646 6.44318 67.8386 6.80114C68.3126 7.15578 68.6258 7.63139 68.7782 8.22798ZM1.97869 31H0.348011L4.01207 20.8182H5.78693L9.45099 31H7.82031L4.94176 22.6676H4.86222L1.97869 31ZM2.25213 27.0128H7.5419V28.3054H2.25213V27.0128ZM13.8881 23.3636V24.5568H9.71697V23.3636H13.8881ZM10.8356 21.5341H12.3221V28.7578C12.3221 29.0462 12.3652 29.2633 12.4513 29.4091C12.5375 29.5516 12.6486 29.6494 12.7844 29.7024C12.9237 29.7521 13.0745 29.777 13.2369 29.777C13.3562 29.777 13.4606 29.7687 13.5501 29.7521C13.6396 29.7356 13.7092 29.7223 13.7589 29.7124L14.0273 30.9403C13.9412 30.9735 13.8185 31.0066 13.6594 31.0398C13.5004 31.0762 13.3015 31.0961 13.0629 31.0994C12.6718 31.1061 12.3072 31.0365 11.9691 30.8906C11.631 30.7448 11.3576 30.5194 11.1488 30.2145C10.94 29.9096 10.8356 29.5268 10.8356 29.0661V21.5341ZM19.0971 23.3636V24.5568H14.926V23.3636H19.0971ZM16.0446 21.5341H17.5311V28.7578C17.5311 29.0462 17.5742 29.2633 17.6603 29.4091C17.7465 29.5516 17.8575 29.6494 17.9934 29.7024C18.1326 29.7521 18.2834 29.777 18.4458 29.777C18.5652 29.777 18.6696 29.7687 18.7591 29.7521C18.8485 29.7356 18.9181 29.7223 18.9679 29.7124L19.2363 30.9403C19.1502 30.9735 19.0275 31.0066 18.8684 31.0398C18.7093 31.0762 18.5105 31.0961 18.2718 31.0994C17.8807 31.1061 17.5162 31.0365 17.1781 30.8906C16.84 30.7448 16.5666 30.5194 16.3578 30.2145C16.149 29.9096 16.0446 29.5268 16.0446 29.0661V21.5341ZM23.9506 31.1541C23.1983 31.1541 22.5503 30.9934 22.0067 30.6719C21.4665 30.3471 21.0489 29.8913 20.7539 29.3047C20.4622 28.7147 20.3164 28.0237 20.3164 27.2315C20.3164 26.4493 20.4622 25.7599 20.7539 25.1634C21.0489 24.5668 21.4599 24.1011 21.9869 23.7663C22.5172 23.4316 23.137 23.2642 23.8462 23.2642C24.2771 23.2642 24.6947 23.3355 25.0991 23.478C25.5034 23.6205 25.8664 23.8442 26.1879 24.1491C26.5094 24.4541 26.7629 24.8501 26.9485 25.3374C27.1341 25.8213 27.2269 26.4096 27.2269 27.1023V27.6293H21.1566V26.5156H25.7702C25.7702 26.1245 25.6907 25.7782 25.5316 25.4766C25.3725 25.1716 25.1488 24.9313 24.8604 24.7557C24.5754 24.58 24.2406 24.4922 23.8562 24.4922C23.4386 24.4922 23.074 24.5949 22.7624 24.8004C22.4542 25.0026 22.2156 25.2678 22.0465 25.5959C21.8808 25.9207 21.7979 26.2737 21.7979 26.6548V27.5249C21.7979 28.0353 21.8874 28.4695 22.0664 28.8274C22.2487 29.1854 22.5022 29.4588 22.8271 29.6477C23.1519 29.8333 23.5314 29.9261 23.9656 29.9261C24.2473 29.9261 24.5041 29.8864 24.7362 29.8068C24.9682 29.724 25.1687 29.6013 25.3377 29.4389C25.5067 29.2765 25.636 29.076 25.7255 28.8374L27.1325 29.0909C27.0198 29.5052 26.8176 29.8681 26.5259 30.1797C26.2376 30.4879 25.8746 30.7282 25.4371 30.9006C25.003 31.0696 24.5075 31.1541 23.9506 31.1541ZM30.3627 26.4659V31H28.8762V23.3636H30.3031V24.6065H30.3975C30.5732 24.2022 30.8483 23.8774 31.2228 23.6321C31.6007 23.3868 32.0763 23.2642 32.6497 23.2642C33.17 23.2642 33.6258 23.3736 34.0169 23.5923C34.408 23.8078 34.7112 24.1293 34.9267 24.5568C35.1421 24.9844 35.2498 25.513 35.2498 26.1428V31H33.7633V26.3217C33.7633 25.7682 33.6191 25.3357 33.3308 25.0241C33.0424 24.7093 32.6464 24.5518 32.1426 24.5518C31.7979 24.5518 31.4913 24.6264 31.2228 24.7756C30.9577 24.9247 30.7472 25.1435 30.5914 25.4318C30.439 25.7169 30.3627 26.0616 30.3627 26.4659ZM40.1021 31.1491C39.4856 31.1491 38.9354 30.9917 38.4515 30.6768C37.9709 30.3587 37.5931 29.9062 37.318 29.3196C37.0462 28.7296 36.9103 28.022 36.9103 27.1967C36.9103 26.3714 37.0479 25.6655 37.323 25.0788C37.6014 24.4922 37.9825 24.0431 38.4664 23.7315C38.9503 23.42 39.4989 23.2642 40.112 23.2642C40.586 23.2642 40.9672 23.3438 41.2555 23.5028C41.5472 23.6586 41.7725 23.8409 41.9316 24.0497C42.094 24.2585 42.22 24.4425 42.3095 24.6016H42.399V20.8182H43.8855V31H42.4338V29.8118H42.3095C42.22 29.9742 42.0907 30.1598 41.9217 30.3686C41.756 30.5774 41.5273 30.7597 41.2356 30.9155C40.944 31.0713 40.5661 31.1491 40.1021 31.1491ZM40.4302 29.8814C40.8578 29.8814 41.219 29.7687 41.514 29.5433C41.8123 29.3146 42.0377 28.9981 42.1902 28.5938C42.3459 28.1894 42.4238 27.7187 42.4238 27.1818C42.4238 26.6515 42.3476 26.1875 42.1951 25.7898C42.0427 25.392 41.819 25.0821 41.524 24.8601C41.229 24.638 40.8644 24.527 40.4302 24.527C39.9828 24.527 39.6099 24.643 39.3116 24.875C39.0133 25.107 38.7879 25.4235 38.6355 25.8246C38.4863 26.2256 38.4118 26.678 38.4118 27.1818C38.4118 27.6922 38.488 28.1513 38.6404 28.5589C38.7929 28.9666 39.0183 29.2898 39.3166 29.5284C39.6182 29.7637 39.9894 29.8814 40.4302 29.8814ZM49.2983 31.1541C48.5459 31.1541 47.898 30.9934 47.3544 30.6719C46.8142 30.3471 46.3965 29.8913 46.1016 29.3047C45.8099 28.7147 45.6641 28.0237 45.6641 27.2315C45.6641 26.4493 45.8099 25.7599 46.1016 25.1634C46.3965 24.5668 46.8075 24.1011 47.3345 23.7663C47.8648 23.4316 48.4846 23.2642 49.1939 23.2642C49.6248 23.2642 50.0424 23.3355 50.4467 23.478C50.8511 23.6205 51.214 23.8442 51.5355 24.1491C51.857 24.4541 52.1106 24.8501 52.2962 25.3374C52.4818 25.8213 52.5746 26.4096 52.5746 27.1023V27.6293H46.5043V26.5156H51.1179C51.1179 26.1245 51.0384 25.7782 50.8793 25.4766C50.7202 25.1716 50.4964 24.9313 50.2081 24.7557C49.9231 24.58 49.5883 24.4922 49.2038 24.4922C48.7862 24.4922 48.4216 24.5949 48.1101 24.8004C47.8018 25.0026 47.5632 25.2678 47.3942 25.5959C47.2285 25.9207 47.1456 26.2737 47.1456 26.6548V27.5249C47.1456 28.0353 47.2351 28.4695 47.4141 28.8274C47.5964 29.1854 47.8499 29.4588 48.1747 29.6477C48.4995 29.8333 48.879 29.9261 49.3132 29.9261C49.5949 29.9261 49.8518 29.8864 50.0838 29.8068C50.3158 29.724 50.5163 29.6013 50.6854 29.4389C50.8544 29.2765 50.9837 29.076 51.0732 28.8374L52.4801 29.0909C52.3674 29.5052 52.1652 29.8681 51.8736 30.1797C51.5852 30.4879 51.2223 30.7282 50.7848 30.9006C50.3506 31.0696 49.8551 31.1541 49.2983 31.1541ZM57.0826 31.1491C56.4661 31.1491 55.9159 30.9917 55.432 30.6768C54.9514 30.3587 54.5736 29.9062 54.2985 29.3196C54.0267 28.7296 53.8908 28.022 53.8908 27.1967C53.8908 26.3714 54.0283 25.6655 54.3034 25.0788C54.5819 24.4922 54.963 24.0431 55.4469 23.7315C55.9308 23.42 56.4793 23.2642 57.0925 23.2642C57.5665 23.2642 57.9476 23.3438 58.236 23.5028C58.5276 23.6586 58.753 23.8409 58.9121 24.0497C59.0745 24.2585 59.2005 24.4425 59.29 24.6016H59.3794V20.8182H60.8659V31H59.4142V29.8118H59.29C59.2005 29.9742 59.0712 30.1598 58.9022 30.3686C58.7364 30.5774 58.5078 30.7597 58.2161 30.9155C57.9244 31.0713 57.5466 31.1491 57.0826 31.1491ZM57.4107 29.8814C57.8382 29.8814 58.1995 29.7687 58.4945 29.5433C58.7928 29.3146 59.0182 28.9981 59.1706 28.5938C59.3264 28.1894 59.4043 27.7187 59.4043 27.1818C59.4043 26.6515 59.3281 26.1875 59.1756 25.7898C59.0231 25.392 58.7994 25.0821 58.5044 24.8601C58.2095 24.638 57.8449 24.527 57.4107 24.527C56.9632 24.527 56.5904 24.643 56.2921 24.875C55.9938 25.107 55.7684 25.4235 55.6159 25.8246C55.4668 26.2256 55.3922 26.678 55.3922 27.1818C55.3922 27.6922 55.4685 28.1513 55.6209 28.5589C55.7734 28.9666 55.9988 29.2898 56.2971 29.5284C56.5987 29.7637 56.9699 29.8814 57.4107 29.8814Z" fill="#24252C"/>
<path d="M88.6089 13.7542C89.0828 13.324 89.3836 12.7225 89.3836 12.0772C89.4273 11.4319 89.1685 10.8303 88.7383 10.3564L85.2967 6.69974C84.8665 6.22583 84.2212 5.96875 83.576 5.96875C82.9307 5.96875 82.2854 6.22754 81.8552 6.74344L80.3915 8.29116C78.6707 10.1413 78.1968 12.8082 79.1446 15.1304C81.467 20.7229 87.0594 30.4879 98.1588 33.0273C98.6327 33.1567 99.1049 33.1987 99.5788 33.1987C101.256 33.1987 102.891 32.5534 104.14 31.3066L105.516 29.9303C105.99 29.4564 106.205 28.8548 106.205 28.2095C106.205 27.5642 105.946 26.9626 105.474 26.5324L101.732 23.0472C101.258 22.617 100.656 22.3582 100.011 22.4019C99.3656 22.4456 98.764 22.7027 98.3338 23.1766L97.0432 24.6386C96.6567 25.0688 96.0115 25.1982 95.4519 24.9831C92.9144 23.8219 88.4393 21.155 86.9336 16.2936C86.7622 15.8197 86.9336 15.2618 87.3201 14.9173L88.6089 13.7542Z" fill="#B5A0F3"/>
<path d="M105.771 16.5511H108.352C108.352 9.0666 102.285 3 94.8008 3V5.58117C100.867 5.58117 105.771 10.4862 105.771 16.5511Z" fill="#5F33E1"/>
<path d="M94.8008 11.9484C97.3382 11.9484 99.4034 14.0136 99.4034 16.551H101.985C101.985 12.5936 98.7581 9.36719 94.8008 9.36719V11.9484Z" fill="#5F33E1"/>
</svg>
